<svg width="150" height="230" viewBox="0 0 150 230" fill="none" xmlns="http://www.w3.org/2000/svg">
<g clip-path="url(#clip0)">
<path d="M325 -261H-175V239H325V-261Z" fill="white"/>
<path d="M80.8984 194.187C80.5586 193.898 80.7656 193.516 80.7109 193.18C80.6445 192.816 80.5312 192.449 80.5234 192.082C80.4961 190.937 80.4531 189.785 80.5273 188.641C80.6016 187.504 80.2891 186.41 80.3125 185.281C80.3359 184.07 80.2812 182.855 80.3242 181.645C80.3672 180.449 80.1797 179.273 80.1328 178.086C80.082 176.875 80.1797 175.656 80.0977 174.449C80.0469 173.687 79.8789 172.902 79.1836 172.371C78.9805 172.219 78.8359 171.988 78.6875 171.816C78.0312 171.738 77.4414 171.668 76.8398 171.598C76.2539 172.043 75.7031 172.461 75.3359 172.738C75.0898 173.441 74.9219 173.93 74.7305 174.469C74.0742 173.926 73.5547 174.457 72.9922 174.598C72.1562 174.312 71.8906 173.656 71.8555 172.852C71.8047 171.578 70.7383 170.523 69.4453 170.469C68.1523 170.41 66.7656 171.707 66.7578 173.07C66.7539 173.746 66.5508 174.363 66.4922 175.02C66.1914 175.145 65.9375 175.238 65.6914 175.355C65.0078 175.684 64.6758 176.32 64.3867 176.961C64 177.824 63.7812 178.746 63.5664 179.672C63.4531 180.176 63.4023 180.586 63.5586 181.098C63.7187 181.617 63.9961 181.992 64.3555 182.348C64.4961 182.484 64.6328 182.625 64.7617 182.754C64.8164 183.277 64.6328 183.766 64.5977 184.258C64.4727 186.027 64.6719 187.805 64.4023 189.586C64.2031 190.949 64.4219 192.34 64.2187 193.734C64.1289 194.352 64.1211 194.977 64.1211 195.602C69.7891 195.5 75.3086 194.812 80.9102 194.441C80.9141 194.344 80.9414 194.227 80.8984 194.187Z" fill="#2B1D0C"/>
<path d="M63.8398 202.828L63.8203 203.012C63.6562 203.898 63.8047 204.84 63.7852 205.758C63.7656 206.648 63.7969 207.535 63.6289 208.438C63.4648 209.324 63.5938 210.266 63.5938 211.184C63.5938 211.41 63.5938 211.641 63.5938 211.871C63.5938 212.82 63.6094 213.773 63.5898 214.723C63.5664 215.648 63.7266 216.586 63.3945 217.492C63.3945 219.121 63.3945 220.75 63.3945 222.41C63.7852 222.41 64.1094 222.41 64.4336 222.41C65.4492 222.41 66.4648 222.41 67.4805 222.41C68.5 222.41 69.5195 222.352 70.5273 222.426C71.5391 222.5 72.5 222.191 73.4961 222.203C76.0195 222.234 78.5469 222.215 81.0664 222.215C81.7188 222.215 82.3672 222.215 83.0703 222.215C83.0703 221.914 83.0703 221.66 83.0703 221.406C83.0703 220.094 83.0156 218.781 83.0859 217.473C83.1562 216.176 82.8203 214.914 82.8594 213.621C82.8828 212.93 82.9414 212.234 82.707 211.531C82.5508 211.059 82.7031 210.488 82.6719 209.969C82.6367 209.434 82.5234 208.906 82.4844 208.375C82.4023 207.191 82.4297 205.992 82.25 204.824C82.1836 204.391 82.1406 203.965 82.1172 203.535C76.0234 203.398 69.9922 202.777 63.8398 202.828Z" fill="#2B1D0C"/>
<path d="M82.082 202.84C81.7109 202.523 81.9648 202.102 81.8906 201.738C81.8203 201.371 81.7344 201.008 81.6992 200.641C81.6172 199.848 81.6484 199.035 81.4648 198.27C81.3477 197.762 81.4297 197.23 81.2617 196.785C81.1172 196.398 81.2227 196.008 81.082 195.684C80.9102 195.277 80.9102 194.887 80.9062 194.477L80.9102 194.441C75.3086 194.813 69.7891 195.5 64.1211 195.602C64.1289 196.586 64.1641 197.578 64.0156 198.566C63.8047 199.969 64.0586 201.402 63.8398 202.828C69.9922 202.777 76.0234 203.398 82.1172 203.535C82.1055 203.367 82.0898 203.199 82.0898 203.031L82.082 202.84Z" fill="#5A3C10"/>
<path d="M59.0664 208.102C59.3945 207.984 59.6523 207.895 59.918 207.797C60.2578 208.23 60.6758 208.512 60.9297 208.992C61.1289 209.371 61.1563 209.75 61.2539 210.141C61.457 210.965 61.2852 211.82 61.4609 212.613C61.7305 213.871 61.5742 215.121 61.6172 216.371C61.6563 217.648 61.7188 218.938 61.5898 220.203C61.5156 220.922 61.4414 221.645 61.4258 222.387C60.6953 222.387 60.0195 222.387 59.2617 222.387C59.2617 222.105 59.2617 221.82 59.2617 221.535C59.2617 220.223 59.2617 218.91 59.2617 217.602C59.2617 216.555 59.2734 215.504 59.2617 214.457C59.2461 213.398 59.2617 212.352 59.1016 211.289C58.9453 210.262 59.0664 209.195 59.0664 208.102Z" fill="#2B1D0C"/>
<path d="M84.9844 222.18C84.9531 222.207 84.8242 222.301 84.6914 222.402C84.4531 222.324 84.1914 222.242 83.8594 222.133C83.8594 221.801 83.8555 221.414 83.8594 221.031C83.8711 219.938 83.5195 218.867 83.6602 217.77C83.332 217.102 83.5195 216.387 83.461 215.691C83.4219 215.289 83.3047 214.895 83.2735 214.492C83.2422 214.07 83.3828 213.602 83.2422 213.227C83.0039 212.594 83.1914 211.949 83.0547 211.336C82.7578 209.992 83.0508 208.617 82.8399 207.293C82.6445 206.066 82.7149 204.855 82.6836 203.637C82.6524 202.426 82.6758 201.215 82.6758 200C82.6758 199.879 82.6758 199.754 82.6758 199.629L82.8047 199.613C82.8281 199.766 82.8985 199.93 82.8672 200.07C82.7539 200.57 83.0547 200.992 83.082 201.465C83.1055 201.93 82.9063 202.426 83.2578 202.867C83.336 202.969 83.2656 203.187 83.2695 203.352C83.2774 203.82 83.2539 204.281 83.4414 204.75C83.6016 205.141 83.3164 205.645 83.6524 206.043C83.7031 206.098 83.6602 206.234 83.6602 206.332C83.6719 206.801 83.6602 207.262 83.836 207.73C83.9805 208.125 83.8945 208.582 84.0195 209.027C84.2149 209.75 84.1797 210.535 84.2539 211.293C84.3125 211.922 84.4063 212.547 84.4414 213.18C84.4727 213.797 84.3281 214.453 84.4805 215.035C84.6445 215.676 84.5195 216.32 84.6641 216.922C84.9961 218.305 84.75 219.691 84.8438 221.07C84.8672 221.406 84.9258 221.738 84.9844 222.18Z" fill="#2B1D0C"/>
<path d="M86.0117 189.617C86.6953 190.332 86.9766 190.992 87.043 191.836C87.1016 192.629 87.0547 193.465 87.3985 194.227V194.324C87.3242 195.969 87.7383 197.594 87.5938 199.242C87.5899 199.289 87.5274 199.336 87.461 199.434C87.3711 198.711 87.293 198.031 87.1992 197.352C87.1485 196.984 87.0781 196.617 87.0039 196.254C86.9336 195.891 87.1641 195.492 86.8242 195.145C86.7266 195.043 86.7813 194.762 86.8164 194.574C86.8789 194.207 86.7031 193.902 86.6172 193.574C86.5391 193.273 86.7617 192.922 86.4688 192.656C86.5 191.684 85.9805 190.789 86.0117 189.617Z" fill="#2B1D0C"/>
<path d="M82.5156 199.359C82.5156 199.188 82.5156 199.012 82.5156 198.836L82.6133 198.824C82.6406 198.996 82.6641 199.168 82.6875 199.344L82.5156 199.359Z" fill="#2B1D0C"/>
<path d="M33.25 152.805H33.3125V152.605H33.25V152.805ZM97.7539 153.16L97.9219 153.148C97.8945 153.039 97.8711 152.93 97.8477 152.82L97.7539 152.836C97.7539 152.941 97.7539 153.051 97.7539 153.16ZM97.5547 152.18L97.7227 152.16C97.6992 152.055 97.6719 151.945 97.6484 151.84L97.5547 151.855C97.5547 151.965 97.5547 152.074 97.5547 152.18ZM75.6836 138.02L75.6797 137.914C75.0625 137.828 74.4492 137.691 73.8281 137.664C73.2227 137.645 72.6563 137.316 72.043 137.457C71.4102 137.605 70.8203 137.145 70.1992 137.281C70.1992 137.625 70.1992 137.91 70.1992 138.242C70.4141 138.242 70.6055 138.238 70.7969 138.242C72.0859 138.293 73.3516 137.91 74.6484 138.039C74.9883 138.074 75.3399 138.027 75.6836 138.02ZM135.98 179.34C137.066 180.344 137.598 181.867 138.48 183.262C138.23 183.273 138.02 183.297 137.809 183.297C136.824 183.301 135.84 183.273 134.855 183.309C134.129 183.332 133.402 183.457 132.676 183.488C131.957 183.523 131.199 183.359 130.52 183.527C129.551 183.77 128.598 183.648 127.641 183.684C127.07 183.707 126.547 183.973 125.953 183.906C125.367 183.84 124.734 183.762 124.191 183.918C123.355 184.164 122.531 184.016 121.707 184.09C121.305 184.129 120.91 184.242 120.508 184.277C120.086 184.309 119.613 184.168 119.238 184.309C118.605 184.543 117.961 184.363 117.348 184.496C116.457 184.695 115.539 184.535 114.68 184.719C114.035 184.859 113.414 184.863 112.785 184.863C111.66 184.867 110.559 185.211 109.426 185.07C108.754 185.395 108.016 185.133 107.348 185.293C106.617 185.465 105.875 185.352 105.168 185.492C104.5 185.625 103.82 185.547 103.184 185.691C102.516 185.844 101.828 185.727 101.203 185.887C100.398 186.094 99.6094 185.996 98.8164 186.059C98.2344 186.105 97.7227 185.762 97.125 185.84C96.5781 185.914 95.9727 185.984 95.4649 185.828C94.6289 185.574 93.7813 185.824 92.9844 185.633C92.0859 185.418 91.1758 185.617 90.3125 185.437C89.0899 185.184 87.8711 185.305 86.6484 185.273C85.4375 185.242 84.2227 185.266 83.0117 185.266C82.5859 185.266 82.1563 185.273 81.7305 185.266C79.3945 185.23 77.0703 185.609 74.7305 185.465C73.5625 185.824 72.3438 185.496 71.1758 185.684C69.2344 185.988 67.293 185.809 65.3516 185.848C63.3555 185.891 61.3516 185.859 59.3516 185.859C57.3867 185.859 55.418 185.859 53.4531 185.859C51.4844 185.859 49.5156 185.859 47.5508 185.859C46.2695 185.859 44.9922 185.879 43.7148 185.852C42.4883 185.824 41.293 186.148 40.0547 186.07C38.8477 185.996 37.6289 186.02 36.418 186.062C34.8633 186.121 33.3359 185.707 31.7773 185.859C30.4453 185.457 29.0664 185.824 27.7305 185.645C25.6914 185.367 23.6367 185.652 21.6172 185.422C19.6367 185.199 17.6641 185.367 15.6953 185.262C15.1953 185.234 14.6992 185.109 14.2031 185.078C13.7109 185.043 13.2148 185.102 12.7266 185.059C12.4297 185.031 12.1406 184.891 11.7734 184.777C11.4102 184.187 11.4297 183.539 11.8633 182.855C12.1211 182.449 12.2539 181.969 12.4336 181.52C12.7148 180.812 13.1367 180.215 13.6758 179.664C14.3906 178.934 14.7969 177.984 15.2734 177.09C15.6719 176.34 16.0391 175.57 16.3945 174.797C16.6328 174.277 16.8203 173.73 17.0508 173.203C17.2852 172.676 17.5938 172.176 17.7734 171.633C17.957 171.082 18.3984 170.66 18.4492 170.035C18.4727 169.73 18.7539 169.449 18.8984 169.148C19.3242 168.273 19.8203 167.426 20.1328 166.512C20.4414 165.59 20.957 164.754 21.1953 163.801C21.3125 163.34 21.582 162.914 21.7695 162.469C22.5273 160.684 23.2578 158.887 23.9688 157.082C24.4336 155.902 24.9375 154.73 25.4102 153.551C25.9297 152.258 26.5195 150.992 26.9023 149.641C27.1172 148.891 27.5156 148.191 27.8008 147.457C28.4102 145.875 29.0977 144.32 29.6563 142.719C29.9453 141.895 30.3438 141.102 30.6719 140.285C31.3281 138.656 32.0156 137.031 32.8086 135.469C33.4609 134.187 34.1797 132.91 35.0664 131.789C35.8711 130.781 37.0352 130.082 38.4102 130.195C39.9688 130.324 41.2461 131.082 41.7695 132.801C41.9766 133.473 41.9883 134.258 41.6289 134.969C41.7188 135.062 41.8047 135.156 41.9063 135.27C42.5625 135.367 43.3125 135.094 43.8828 135.664C44.3672 135.727 44.7773 135.621 45.2266 135.375C47.2773 134.246 49.4883 133.473 51.7031 132.738C53.1875 132.246 54.6953 131.855 56.2227 131.527C56.7578 131.41 57.3047 131.301 57.8398 131.172C58.3594 131.051 58.9219 131.039 59.418 130.914C59.9805 130.773 60.5625 130.902 61.0859 130.691C61.6563 130.457 62.2656 130.727 62.8008 130.547C63.6914 130.246 64.5898 130.437 65.4805 130.375C66.2734 130.316 67.0469 130.086 67.8555 130.172C69.2344 130.316 70.6172 130.449 72.0078 130.371C72.5117 130.629 73.0625 130.535 73.5938 130.578C74.1289 130.621 74.6758 130.684 75.1797 130.801C76.3477 131.074 77.5859 131.027 78.707 131.527C79.7227 131.492 80.625 131.98 81.5938 132.168C82.4531 132.332 83.2695 132.699 84.1016 132.992C85.4766 133.473 86.8359 134.012 88.1055 134.719C89.2852 135.375 90.5156 135.969 91.543 136.879C91.6758 137 91.8438 137.098 92.0156 137.156C92.7305 137.41 93.4531 137.645 94.1484 137.875C97.4727 135.523 99.9649 135.07 103.781 136.703C103.793 136.363 103.809 136.055 103.816 135.742C103.82 135.445 103.816 135.152 103.816 134.871C103.953 134.617 104.09 134.379 104.211 134.133C104.98 132.57 106.656 132.137 107.703 132.363C108.809 132.609 109.809 133.129 110.352 134.242C110.484 134.52 110.695 134.758 110.898 135.059C110.867 135.891 111.195 136.609 111.785 137.297C112.301 137.891 112.664 138.621 113.059 139.312C113.73 140.477 114.313 141.695 115.051 142.812C115.777 143.918 116.391 145.09 117.141 146.184C117.703 147.008 118.109 147.941 118.57 148.832C119.496 150.613 120.395 152.406 121.332 154.18C122.031 155.5 122.762 156.805 123.496 158.105C124.172 159.297 124.789 160.527 125.488 161.699C126.273 163.02 127.094 164.324 127.922 165.617C128.367 166.312 128.777 167.031 129.191 167.746C130.09 169.289 131.027 170.805 132.039 172.273C132.844 173.445 133.668 174.605 134.391 175.824C135.023 176.895 135.578 178.016 135.98 179.34Z" fill="#023A3C"/>
<path d="M58.9688 188.809C58.7773 189.176 58.6406 189.445 58.4648 189.793C58.2109 189.793 57.8906 189.777 57.5703 189.793C56.3867 189.855 55.2031 189.949 54.0156 189.98C52.8047 190.016 51.5703 189.844 50.3828 190.023C48.5703 190.293 46.75 189.988 44.9609 190.215C42.6562 190.504 40.3438 190.164 38.0625 190.418C36.0508 190.641 34.0508 190.527 32.0469 190.57C30.0156 190.613 27.9844 190.617 25.9531 190.566C24.5742 190.535 23.1992 190.289 21.8086 190.383C19.9141 189.969 17.9961 190.285 16.0898 190.188C15.9687 190.18 15.8437 190.188 15.7148 190.188C15.8203 188.781 17.0664 187.742 18.1523 187.383C18.6602 187.215 19.1328 187.027 19.6797 187.027C19.9805 187.023 20.2812 186.848 20.5781 186.855C21.0469 186.867 21.5078 186.969 21.9727 187.039C22.4063 187.102 22.8242 187.012 23.2852 187.191C23.6836 187.348 24.1992 187.355 24.6641 187.41C25.3477 187.488 26.0039 187.738 26.6641 187.785C27.332 187.832 27.9727 188.027 28.6406 188.035C29.043 188.035 29.4414 188.148 29.8398 188.219C30.2031 188.285 30.6211 188.043 30.9414 188.41L31.1328 188.414C32.4492 188.48 33.7656 188.59 35.082 188.602C36.8594 188.617 38.6211 188.895 40.4062 188.824C42.1719 188.754 43.957 188.688 45.7109 188.852C46.8359 188.961 47.9492 188.977 49.0703 189C50.2187 189.023 51.3828 189.125 52.5078 188.98C54.4492 188.723 56.3906 188.863 58.3281 188.809C58.5195 188.805 58.7109 188.809 58.9688 188.809Z" fill="#003120"/>
<path d="M83.6562 188.773C83.8516 188.41 83.9961 188.145 84.1133 187.922C85.3906 187.488 86.6719 187.785 87.8945 187.598C89.707 187.324 91.5156 187.477 93.3242 187.441C95.1914 187.402 97.0625 187.43 98.9297 187.43C100.766 187.43 102.605 187.43 104.441 187.43C104.758 187.43 105.074 187.43 105.391 187.43V187.59C105.113 187.605 104.836 187.625 104.555 187.625C103.867 187.633 103.172 187.578 102.492 187.641C101.437 187.738 100.387 187.891 99.3242 187.824C98.7266 188.184 98.0703 187.969 97.4375 188.02C96.6133 188.09 95.7891 188.18 94.9648 188.211C94.1133 188.242 93.2305 188.078 92.4141 188.25C91.1523 188.516 89.8867 188.242 88.6562 188.441C87.3984 188.641 86.1484 188.574 84.8984 188.617C84.7539 188.621 84.6172 188.75 84.4727 188.766C84.2305 188.793 83.9883 188.773 83.6562 188.773Z" fill="#003120"/>
<path d="M71.8008 84.2109C72.0898 84.3906 72.3242 84.5391 72.6289 84.7305C70.8203 85.7851 69.0742 86.8203 67.4609 88.1992C67.5273 87.6133 67.6523 87.1172 67.6133 86.6367C67.582 86.1953 67.3711 85.7656 67.2266 85.2891C68.707 84.6445 70.25 84.2851 71.8008 84.2109ZM102.922 101.297C102.84 101.129 102.75 100.961 102.668 100.789C102.051 99.4726 101.367 98.1914 100.777 96.8555C100.102 95.332 99.4141 93.8125 98.7266 92.2969C98.1875 91.1094 97.6875 89.9062 97.1445 88.7226C96.6719 87.6992 96.2422 86.6797 95.9219 85.5859C95.6055 84.5039 94.832 83.625 93.6523 83.2461C92.582 82.8984 91.5937 82.9766 90.6016 83.5742C89.6953 84.1172 89.2578 84.8984 89.0781 85.8867C89.0352 86.1289 88.9727 86.3633 88.9062 86.6445C88.9531 86.7617 89.0859 86.9375 89.0703 87.1016C89.0078 87.7578 89.3125 88.3086 89.5039 88.8945C89.6641 89.3867 89.9922 89.8125 90.1406 90.332C90.2305 90.4531 90.2383 90.5781 90.25 90.7031L90.125 90.7226C90.0977 90.5937 90.0742 90.4648 90.0469 90.3359L90.1406 90.332C89.8359 90.2617 89.7812 90.0508 89.6523 89.8789C89.0977 89.1328 88.7734 88.2617 88.1875 87.5195C87.625 86.7969 86.9336 86.2226 86.3516 85.5351C85.7695 84.8516 84.9102 84.5625 84.2031 84.0586C83.7734 83.75 83.2148 83.5781 82.6875 83.4609C81.6484 83.2266 80.6094 82.9219 79.5391 83.0742C79.4258 82.8437 79.3086 82.6601 79.25 82.457C78.9609 81.4922 78.4648 80.6523 77.7812 79.9141C76.9805 79.0547 76.0078 78.4453 74.9609 77.9414C74.2305 77.5898 73.4805 77.3125 72.6484 77.3476C72.5195 77.3516 72.332 77.4023 72.2656 77.3359C71.8984 76.9648 71.3828 77.0586 71.0742 77.1875C70.3437 77.4883 69.5859 77.2422 68.8477 77.5117C68.2578 77.7226 67.5781 77.7383 66.9609 77.9414C65.6016 78.3789 64.2656 78.8516 62.9766 79.4922C61.6641 80.1445 60.3867 80.8555 59.1406 81.6172C58.1953 82.1992 57.2344 82.7656 56.3555 83.4375C55.25 84.2773 54.1562 85.1406 53.0938 86.043C51.8945 87.0625 50.6914 88.0664 49.5898 89.1953C49.4766 89.3125 49.3516 89.4219 49.2422 89.543C48.3242 90.5586 47.1563 91.2305 46.0039 91.9141L45.875 92.0859L45.8125 92.0234L45.9766 91.8867L46.0039 91.9141C46.0586 91.6719 46.1016 91.4297 46.1953 91.207C46.4531 90.5859 46.6875 89.9531 47.168 89.4414C47.9375 88.6172 48.4258 87.6836 48.3633 86.4922C48.3086 85.4023 47.7852 84.4922 46.8477 83.7812C46.3906 83.4375 45.9414 83.3086 45.3984 83.207C45.0156 83.1367 44.7383 83.1367 44.3633 83.2187C43.9727 83.3086 43.5781 83.3359 43.2188 83.5586C42.1719 84.207 41.4375 85.125 40.8711 86.2109C39.8242 88.2305 38.8711 90.293 37.957 92.3789C37.3867 93.6836 36.7266 94.9492 36.1289 96.2422C35.3164 97.9922 34.4766 99.7305 33.6719 101.484C57.0586 103.219 79.5977 100.703 102.922 101.297Z" fill="#F04B23"/>
<path d="M107.602 110.352C107.414 110 107.223 109.652 107.02 109.312C106.113 107.809 105.422 106.176 104.625 104.605C104.062 103.5 103.469 102.41 102.922 101.297C79.5977 100.703 57.0586 103.219 33.6719 101.484C33.5156 101.824 33.3555 102.16 33.2031 102.504C32.7578 103.5 32.2266 104.457 31.8164 105.473C31.4063 106.48 30.8711 107.437 30.4336 108.437C29.8594 109.758 29.1992 111.039 28.5547 112.328C55.1914 111.336 80.9648 109.527 107.602 110.352Z" fill="#9C1C20"/>
<path d="M109.539 114.074C108.844 112.859 108.266 111.586 107.602 110.352C80.9648 109.527 55.1914 111.336 28.5547 112.328C28.3203 112.805 28.0898 113.285 27.8633 113.766C26.668 116.324 25.3828 118.844 24.1719 121.398C53.7305 121.297 82.4141 118.574 111.953 118.422C111.094 117.008 110.359 115.516 109.539 114.074Z" fill="#F04B23"/>
<path d="M117.027 126.707C116.227 125.332 115.41 123.961 114.547 122.629C113.711 121.336 112.937 120.008 112.121 118.703C112.062 118.613 112.012 118.516 111.953 118.422C82.4141 118.574 53.7305 121.297 24.1719 121.398C24.0977 121.559 24.0156 121.715 23.9414 121.879C23.3359 123.168 22.8203 124.496 22.1758 125.77C21.668 126.773 21.2656 127.824 20.8477 128.859C20.6406 129.371 20.4219 129.879 20.2109 130.391C52.3633 130.293 85.3438 128.504 117.504 127.504C117.348 127.238 117.184 126.973 117.027 126.707Z" fill="#9C1C20"/>
<path d="M125.063 137.645C124.473 136.965 123.848 136.316 123.238 135.652C122.105 134.41 121.082 133.098 120.133 131.715C119.195 130.352 118.344 128.934 117.504 127.504C85.3438 128.504 52.3633 130.293 20.2109 130.391C19.7188 131.555 19.2188 132.715 18.6797 133.859C18.1875 134.906 17.6211 135.922 17.0117 136.902C16.457 137.793 16.4375 138.727 16.5039 139.645C16.6328 139.77 16.6992 139.84 16.7734 139.914C17.0313 139.914 17.2969 139.891 17.5547 139.922C17.8242 139.957 18.0898 140.094 18.3594 140.105C19.2852 140.133 20.2031 140.145 21.1328 140.281C22.2695 140.449 23.4297 140.27 24.5938 140.473C25.5781 140.641 26.6211 140.555 27.6328 140.492C28.6719 140.426 29.6797 140.727 30.6992 140.691C32.9336 140.617 35.1641 140.793 37.4102 140.543C39.7578 140.285 42.1406 140.66 44.5078 140.328C45.7734 140.148 47.0664 140.332 48.3594 140.152C50.0469 139.918 51.7734 140.176 53.4922 139.945C55.1797 139.719 56.9063 140.043 58.6211 139.746C59.5781 139.582 60.5859 139.684 61.5664 139.73C62.5352 139.777 63.4805 139.535 64.4375 139.531C74.8281 139.516 85.2188 139.52 95.6133 139.531C96.2383 139.531 96.875 139.621 97.4961 139.727C98.0899 139.828 98.6094 139.512 99.1875 139.516C100.988 139.531 102.793 139.523 104.594 139.523C106.398 139.523 108.199 139.523 110.004 139.523C111.84 139.523 113.676 139.488 115.512 139.531C117.293 139.574 119.063 139.422 120.84 139.328C121.297 139.305 121.758 139.348 122.215 139.32C123.426 139.246 124.633 139.152 125.906 139.062C125.715 138.516 125.418 138.051 125.063 137.645Z" fill="#F04B23"/>
<path d="M126.656 132.344C126.148 131.82 125.758 131.215 125.336 130.629C124.773 129.84 124.137 129.105 123.617 128.289C123.199 127.633 122.73 127.023 122.281 126.391C121.652 125.504 121.012 124.621 120.363 123.746C119.691 122.844 119.004 121.949 118.324 121.051C117.629 120.129 116.926 119.211 116.234 118.281C115.609 117.441 115.102 116.52 114.512 115.652C114 114.895 113.547 114.094 113.09 113.297C112.672 112.57 112.187 111.879 111.648 111.246C110.832 110.289 109.941 109.395 109.09 108.469C108.965 108.332 108.875 108.16 108.754 108.02C108.254 107.418 107.742 106.82 107.102 106.062C107.191 106.395 107.199 106.527 107.254 106.633C107.641 107.367 108.094 108.059 108.543 108.758C110.461 111.742 112.477 114.664 114.477 117.598C115.258 118.746 116.043 119.895 116.824 121.047C117.848 122.555 118.801 124.117 119.91 125.559C121.129 127.133 122.172 128.82 123.312 130.445C123.945 131.348 124.582 132.203 125.625 132.711C126.098 132.937 126.52 133.117 127.055 132.969C126.914 132.742 126.816 132.512 126.656 132.344Z" fill="#235740"/>
<path d="M129.398 125.262C128.504 123.668 127.816 121.969 126.867 120.406C126.172 119.262 125.625 118.035 124.992 116.855C124.309 115.582 123.555 114.359 122.785 113.156C121.684 111.438 120.535 109.742 119.348 108.078C118.438 106.809 117.633 105.453 116.832 104.109C116.211 103.062 115.668 101.973 115.09 100.898C114.488 99.7695 114.48 99.7617 113.18 99.0078C113.387 99.3359 113.531 99.5664 113.676 99.793C114.668 101.336 115.48 102.98 116.391 104.566C116.59 104.906 116.691 105.301 116.891 105.637C117.309 106.352 117.836 107.012 118.184 107.758C118.676 108.816 119.367 109.746 119.895 110.785C120.488 111.957 121.273 113.031 121.934 114.172C122.68 115.461 123.383 116.781 124.105 118.09C124.383 118.598 124.637 119.121 124.953 119.605C125.66 120.68 126.211 121.844 126.895 122.93C127.656 124.145 128.469 125.324 129.395 126.418C129.641 126.711 129.871 127.016 130.109 127.312L130.195 127.254C129.934 126.586 129.746 125.879 129.398 125.262Z" fill="#235740"/>
<path d="M23.6172 116.148C23.707 115.953 23.75 115.738 23.8164 115.535L23.6914 115.477C23.1875 116.336 22.6758 117.184 22.1875 118.055C21.7617 118.824 21.4414 119.664 20.9375 120.379C19.7383 122.09 18.8828 123.984 17.8633 125.789C17.6563 126.16 17.5273 126.57 17.3398 126.949C16.5469 128.566 15.7383 130.18 14.9141 131.84C15.0586 131.828 15.1602 131.852 15.2305 131.812C15.9414 131.422 16.5117 130.875 16.8633 130.152C17.3125 129.227 17.6992 128.266 18.1523 127.344C19.9805 123.617 21.8984 119.93 23.6172 116.148Z" fill="#235740"/>
<path d="M25.7695 98.5195C24.8164 100.512 23.8633 102.508 22.8047 104.715C22.8047 104.32 22.7852 104.145 22.8125 103.98C22.832 103.867 22.9648 103.762 22.9648 103.656C22.9492 102.66 23.2812 101.699 23.1797 100.691C23.0937 99.8789 23.4922 99.3164 24.2422 98.9883C24.707 98.7852 25.1602 98.5547 25.6172 98.3398L25.7695 98.5195Z" fill="#235740"/>
<path d="M28.4805 104.895C28.5117 104.68 28.4648 104.48 28.6016 104.254C28.8281 103.883 28.9531 103.449 29.2695 103.121C29.2383 103.336 29.2852 103.535 29.1484 103.762C28.9219 104.137 28.7969 104.566 28.4805 104.895Z" fill="#235740"/>
<path d="M24.5469 113.945C24.6211 113.75 24.3633 113.445 24.7422 113.355C24.668 113.547 24.9258 113.852 24.5469 113.945Z" fill="#235740"/>
<path d="M28.2852 105.285C28.3125 105.137 28.1875 104.91 28.4805 104.895C28.4531 105.043 28.5781 105.27 28.2852 105.285Z" fill="#235740"/>
<path d="M26.2852 109.844C26.2852 109.953 26.2852 110.062 26.2852 110.168L26.1914 110.184C26.1641 110.078 26.1406 109.973 26.1133 109.863L26.2852 109.844Z" fill="#235740"/>
<path d="M25.3008 112.07C25.3711 111.82 25.4062 111.699 25.4375 111.582C25.4688 111.676 25.5117 111.766 25.5234 111.859C25.5273 111.887 25.4531 111.926 25.3008 112.07Z" fill="#235740"/>
<path d="M25.3633 112.09C25.2969 112.328 25.2617 112.449 25.2266 112.566C25.1992 112.477 25.1562 112.387 25.1445 112.289C25.1406 112.262 25.2148 112.223 25.3633 112.09Z" fill="#235740"/>
<path d="M24.9414 112.961C24.9688 112.812 24.8438 112.582 25.1367 112.566C25.1055 112.715 25.2344 112.945 24.9414 112.961Z" fill="#235740"/>
<path d="M24.9414 112.961C24.9102 113.109 25.0391 113.336 24.7422 113.355C24.7734 113.203 24.6445 112.977 24.9414 112.961Z" fill="#235740"/>
<path d="M25.7617 111.098C25.6875 111.348 25.6562 111.465 25.6211 111.582C25.5898 111.492 25.5508 111.402 25.5352 111.309C25.5312 111.277 25.6055 111.238 25.7617 111.098Z" fill="#235740"/>
<path d="M24.5469 113.945C24.5156 114.094 24.6445 114.32 24.3516 114.336C24.3789 114.187 24.2539 113.961 24.5469 113.945Z" fill="#235740"/>
<path d="M24.3516 114.336C24.3203 114.488 24.4453 114.715 24.1523 114.73C24.1836 114.582 24.0547 114.355 24.3516 114.336Z" fill="#235740"/>
<path d="M23.957 115.125C23.9844 114.977 23.8594 114.746 24.1524 114.73C24.125 114.879 24.25 115.109 23.957 115.125Z" fill="#235740"/>
<path d="M23.7578 115.52C23.7891 115.367 23.6602 115.141 23.957 115.125C23.9258 115.273 24.0547 115.5 23.7578 115.52Z" fill="#235740"/>
<path d="M29.2461 103.105L29.3867 102.945L29.4453 103.008L29.2852 103.145L29.2461 103.105Z" fill="#235740"/>
<path d="M25.9219 110.926H25.7266V110.863H25.9219V110.926Z" fill="#235740"/>
<path d="M25.9219 110.469H26.1211V110.535H25.9219V110.469Z" fill="#235740"/>
<path d="M26.3828 109.617V109.418H26.4492V109.617H26.3828Z" fill="#235740"/>
<path d="M26.5156 109.09H26.7109V109.156H26.5156V109.09Z" fill="#235740"/>
<path d="M107.164 106.289L107.004 106.152L107.066 106.094L107.203 106.254L107.164 106.289Z" fill="#235740"/>
<path d="M28.0234 105.68V105.879H27.957V105.68H28.0234Z" fill="#235740"/>
<path d="M28.3047 105.305L28.168 105.465L28.1055 105.402L28.2656 105.266L28.3047 105.305Z" fill="#235740"/>
<path d="M73.418 30.0273C72.8281 29.1484 72.1445 28.3437 71.582 27.4492C71.1445 26.7578 70.5781 26.1562 70.0664 25.5156C69.5 24.8086 68.9336 24.1016 68.4492 23.332C68.1172 22.8125 67.7305 22.3242 67.3867 21.8477C67.0195 21.8477 66.6953 21.8477 66.4531 21.8477C65.6953 22.2383 65.1797 22.7305 64.8945 23.4922C64.6641 24.1172 64.2773 24.6797 63.9141 25.3555C63.9141 25.6172 63.9141 25.9688 63.9141 26.2812C63.7852 26.4102 63.6562 26.4883 63.6055 26.5977C63.1797 27.5117 62.7031 28.3945 62.1719 29.25C61.7852 29.8672 61.5664 30.5937 61.1484 31.1836L61.0039 31.4062C65.4766 31.4062 69.9492 31.4062 74.4258 31.4062C74.0781 30.9531 73.7344 30.4961 73.418 30.0273Z" fill="#F04B23"/>
<path d="M70.2695 62.4453C70.2695 62.0664 70.2695 61.8281 70.2695 61.4453C70.5742 61.6875 70.7812 61.8555 71.0469 62.0625C70.7812 62.1914 70.5664 62.3008 70.2695 62.4453ZM112.832 93.082C111.996 92.2188 111.344 91.207 110.609 90.2656C109.836 89.2695 109.07 88.2617 108.238 87.3164C107.301 86.25 106.504 85.0742 105.711 83.9219C104.66 82.3984 103.551 80.918 102.578 79.332C101.828 78.1055 101.133 76.8359 100.34 75.6289C99.9258 74.9961 99.6484 74.2773 99.2695 73.6172C98.8594 72.8984 98.3828 72.2187 97.9727 71.4961C97.3438 70.3828 96.8125 69.2109 96.1289 68.1328C95.5039 67.1484 95.043 66.082 94.4297 65.0938C93.8516 64.1602 93.4219 63.1484 92.8789 62.1914C92.0234 60.6875 91.207 59.1523 90.3867 57.6211C89.5781 56.1172 88.75 54.6289 87.9492 53.1211C87.0703 51.4766 86.1289 49.8633 85.1289 48.3008C83.9336 46.4297 82.7539 44.5508 81.5117 42.7148C79.9766 40.4492 78.6719 38.0586 77.3203 35.6875C76.8164 34.8047 76.2617 33.957 75.6875 33.1211C75.2891 32.5352 74.8555 31.9727 74.4258 31.4062C69.9492 31.4062 65.4766 31.4062 61.0039 31.4062C60.4414 32.2539 60.0273 33.1797 59.5 34.0469C59.0898 34.7227 58.7734 35.4609 58.3594 36.125C57.5234 37.4805 56.8086 38.8984 56.0273 40.2812C55.4453 41.3164 54.8203 42.3281 54.2461 43.3711C53.5742 44.6055 52.7969 45.7852 52.125 47.0234C51.7773 47.6641 51.4648 48.332 51.0742 48.9453C50.168 50.3633 49.3984 51.8555 48.582 53.3242C48.4648 53.5391 48.3516 53.7578 48.2305 53.9648C47.6289 54.9961 47 56.0117 46.4258 57.0586C45.8828 58.0469 45.2617 58.9883 44.7344 59.9922C44.1836 61.0508 43.4883 62.0352 42.8828 63.0625C42.3711 63.9297 41.9219 64.832 41.4102 65.6992C40.7383 66.832 39.9883 67.9258 39.3477 69.0742C38.6328 70.3555 37.8594 71.6016 37.1328 72.8711C36.3437 74.2539 35.4688 75.6016 34.6133 76.9492C34.3242 77.4023 34.0352 77.8555 33.6797 78.4102C33.6562 78.1875 33.6094 78.0781 33.6406 78.0078C33.8828 77.4883 34.2187 76.9922 34.3867 76.4492C34.8633 74.9023 35.6016 73.4688 36.3047 72.0312C37.7031 69.1641 39.0547 66.2734 40.6406 63.4961C41.4727 62.0469 42.1445 60.5117 42.9375 59.0391C44.043 56.9805 45.0273 54.8555 46.0977 52.7773C46.2148 52.5508 46.1914 52.3516 46.2227 52.1367C45.2305 53.4922 44.3359 54.9023 43.4453 56.3242C42.5547 57.75 41.7266 59.207 40.9375 60.6875C40.4648 61.5742 40.1133 62.5156 39.5352 63.3438C39.0898 63.9844 38.6211 64.6094 38.1797 65.2461C37.3516 66.4453 36.6484 67.7422 35.9414 69.0234C35.1016 70.5352 34.2734 72.0586 33.5312 73.6172C33.2422 74.2187 32.832 74.7383 32.6016 75.3945C32.2891 76.2969 31.8555 77.1836 31.3984 78.0312C30.9297 78.8984 30.4102 79.7461 29.8633 80.6797C30.5078 80.6445 31.082 80.7539 31.6133 80.4688C31.9648 80.2812 32.3008 80.0781 32.6367 79.8711L32.7617 79.7031L32.8242 79.7656L32.6641 79.9023L32.6367 79.8711C32.6211 80.0039 32.625 80.1367 32.5703 80.2422C32.293 80.8203 31.9648 81.3828 31.6328 81.9141C30.7031 83.4258 29.9805 85.0508 29.0352 86.5547C28.5273 87.3594 28.1562 88.2383 28.1055 89.2383C27.0117 90.3438 26.7344 91.0234 26.7539 92.5781C26.8438 92.6719 26.9375 92.7656 27.0391 92.8672C29.4219 92.8672 31.8164 92.8672 34.2109 92.8672C36.6016 92.8672 38.9961 92.8359 41.3867 92.875C43.7578 92.9141 46.1172 92.8438 48.4922 93.0195C51.1328 93.2148 53.8008 93.0625 56.4531 93.0625C59.1094 93.0625 61.7656 93.0625 64.4219 93.0625C67.0781 93.0625 69.7344 93.0312 72.3906 93.0703C75.0195 93.1133 77.6445 93.0039 80.2773 93.2188C82.5898 93.4102 84.9336 93.2188 87.2578 93.2695C89.5586 93.3203 91.8594 93.1133 94.1641 93.4258C95.4219 93.5977 96.7187 93.457 97.9961 93.457C99.2773 93.457 100.555 93.457 101.836 93.457C103.113 93.457 104.391 93.4805 105.672 93.4492C106.93 93.418 108.172 93.5547 109.426 93.6406C110.438 93.707 111.457 93.6562 112.473 93.6523C112.688 93.6523 112.902 93.6328 113.117 93.6211C113.004 93.4023 112.953 93.2109 112.832 93.082Z" fill="#023A3C"/>
<path d="M27.0508 78.5898C26.8555 78.1797 26.8984 77.8672 26.7812 77.5625C26.5781 77.0352 26.8984 76.4688 27.0586 75.9375C27.3242 75.0547 27.7773 74.2656 28.2812 73.4883C28.8398 72.625 29.2422 71.6602 29.6914 70.7305C30.207 69.6562 30.7617 68.6055 31.4258 67.6094C31.6406 67.2852 31.7305 66.8828 31.9258 66.543C33.0742 64.5352 34.0312 62.4258 35.1328 60.3945C36.0078 58.7852 36.8516 57.1563 37.8828 55.6289C38.5312 54.6719 38.9609 53.5742 39.5859 52.6016C40.3086 51.4648 40.8672 50.2266 41.6445 49.1211C42.0117 48.6016 42.2578 48 42.5625 47.4375C43.1875 46.2852 43.793 45.125 44.4453 43.9883C45.1601 42.7422 45.6797 41.3828 46.5937 40.2539C47.3906 38.418 48.6367 36.8438 49.6289 35.125C50.5156 33.5898 51.4414 32.0703 52.3242 30.5312C53.1641 29.0664 54.0351 27.625 54.8984 26.168C54.9883 26.2227 55.0547 26.2383 55.0703 26.2734C55.5508 27.3828 55.5117 27.3633 54.9648 28.5586C54.4961 29.5781 54.0586 30.6094 53.5078 31.5938C52.8203 32.8203 52.1406 34.0469 51.4336 35.2656C50.8633 36.25 50.3633 37.2969 49.9375 38.3789C49.3164 39.9531 48.668 41.5273 47.8047 43.0039C46.8672 44.6172 45.9297 46.2344 44.9531 47.8242C43.6445 49.9531 42.2031 51.9961 40.8437 54.0898C40.2773 54.957 39.8594 55.9219 39.293 56.7852C38.3906 58.1719 37.8008 59.7188 36.9727 61.1406C36.7695 61.4844 36.5742 61.8477 36.3047 62.1406C35.4766 63.0391 34.918 64.1289 34.2305 65.1211C33.4648 66.2266 32.918 67.4648 32.2383 68.6211C31.5 69.8867 30.9336 71.2383 30.1523 72.4883C29.7148 73.1875 29.3633 73.9766 29.0742 74.7891C28.7383 75.7266 28.1641 76.5742 27.6875 77.4609C27.4961 77.8125 27.2969 78.1562 27.0508 78.5898Z" fill="#003120"/>
<path d="M47.9922 30.168H48.1875V30.2344H47.9922V30.168Z" fill="#003120"/>
<path d="M46.2031 52.1211L46.3398 51.9609L46.3984 52.0234L46.2383 52.1602L46.2031 52.1211Z" fill="#003120"/>
<path d="M94.6055 150.816C93.8437 149.188 92.9414 147.66 91.8437 146.324C91.6133 146.34 91.4883 146.348 91.3437 146.359C91.3437 146.738 91.3437 147.09 91.3437 147.215C91.5937 148.195 92.1758 148.703 92.7305 149.215C93.3359 149.77 93.9805 150.285 94.6055 150.816ZM99.2812 152.113C99.4453 152.004 99.5859 151.934 99.6914 151.832C100.297 151.234 100.895 150.629 101.5 150.027C102.344 149.195 102.875 148.242 102.613 147.109C102.555 146.949 102.496 146.793 102.43 146.625C100.895 147.852 99.8555 149.297 99.0352 150.773C99.1289 151.27 99.1992 151.66 99.2812 152.113ZM90.6367 144.559C91.1445 144.473 91.6406 144.391 92.0703 144.32C92.6094 144.676 93.1836 144.816 93.5312 145.297C93.7539 145.605 94.0547 145.867 94.2148 146.199C94.6836 147.176 95.3906 148 95.9414 148.922C96.2969 149.512 96.4805 150.203 96.7461 150.859C96.8203 150.773 96.9023 150.672 97.0273 150.535C97.0273 149.777 97.1523 148.934 97 148.148C96.6992 146.633 96.8867 145.117 96.8437 143.605C96.8242 142.98 96.9883 142.352 97.0117 141.723C97.0273 141.391 97.1289 141.043 96.8555 140.699C96.7539 140.574 96.9687 140.191 97.0508 139.875C97.3828 139.781 97.7344 139.684 98.0508 139.598C98.3359 139.879 98.5664 140.109 98.832 140.367C98.832 142.723 98.832 145.105 98.832 147.656C99.7305 146.363 100.699 145.363 102.145 144.773C102.465 144.836 102.898 144.687 103.348 144.871C104.215 145.227 104.316 146.008 104.492 146.746C104.566 147.043 104.414 147.395 104.687 147.637C104.625 147.879 104.527 148.113 104.508 148.352C104.465 148.953 104.23 149.473 103.918 149.977C103.43 150.766 102.926 151.57 102.164 152.082C101.359 152.617 100.828 153.441 99.9883 153.93C99.6562 154.125 99.4453 154.531 99.1719 154.852C99.2148 155.895 99.5039 156.898 99.3867 157.926C99.7266 158.422 99.4609 159.004 99.5977 159.512C99.9258 160.691 99.7383 161.883 99.7734 163.07C99.8086 164.281 99.7812 165.492 99.7812 166.699C99.6133 166.867 99.4531 167.027 99.2891 167.191C99.0273 167.191 98.7656 167.191 98.5039 167.191C97.9961 166.789 97.8164 166.238 97.8125 165.613C97.8086 164.109 97.7617 162.598 97.8281 161.094C97.8789 159.992 97.5703 158.93 97.6172 157.836C97.2812 157.207 97.4766 156.52 97.4023 155.82C95.8789 155.012 94.8477 153.617 93.6016 152.457C92.5625 151.484 91.5117 150.527 90.4922 149.531C89.8594 148.914 89.5742 148.074 89.375 147.25C89.1758 146.438 89.5156 145.707 90.0937 145.105C90.2734 144.918 90.4609 144.738 90.6367 144.559Z" fill="white"/>
<path d="M90.043 160.223C90.5117 160.012 90.3711 159.434 90.7188 159.117C91.0586 158.813 91.5977 158.891 91.8242 158.453C92.3516 158.453 92.8711 158.453 93.375 158.453C93.5352 158.594 93.6602 158.754 93.8281 158.836C94.6836 159.258 94.582 159.141 95.7266 160.363C96.3828 161.063 96.9141 161.797 97.2344 162.691C97.6094 162.84 97.4023 163.293 97.6523 163.5C98.3398 164.059 98.4648 165.086 99.3242 165.504C99.7148 165.191 99.2695 164.625 99.7188 164.285C99.9961 164.074 99.9062 163.559 100.273 163.348C100.129 162.844 100.719 162.645 100.746 162.152C100.766 161.777 101.098 161.336 101.418 161.086C101.805 160.777 101.746 160.27 102.09 159.973C102.387 159.715 102.684 159.445 102.918 159.137C103.203 158.754 103.801 158.914 104.016 158.449C104.277 158.449 104.539 158.449 104.793 158.449C104.937 158.313 105.078 158.18 105.211 158.059C105.898 157.961 106.414 158.348 106.945 158.645C107.527 158.969 107.715 159.621 108.145 160.398C108.145 160.457 108.145 160.773 108.145 161.09C108.145 161.414 108.145 161.742 108.145 162.074C107.895 162.492 107.48 162.895 107.438 163.336C107.391 163.82 106.816 164.023 106.965 164.527C106.699 164.813 106.254 165.074 106.215 165.387C106.145 165.938 105.758 166.176 105.434 166.438C105.008 166.777 105.059 167.363 104.629 167.695C104.215 168.008 103.879 168.422 103.508 168.793C103.594 169.535 102.672 169.688 102.598 170.391C102.563 170.703 102.117 170.969 101.844 171.27C101.844 171.379 101.844 171.508 101.844 171.684C101.629 171.758 101.367 171.793 101.18 171.926C100.914 172.113 100.707 172.379 100.473 172.613C100.086 172.613 99.6914 172.613 99.2969 172.613C98.9297 172.172 98.2187 172.219 97.9297 171.652C97.6133 171.035 96.8281 171.066 96.418 170.547C96.0508 170.094 95.5938 169.707 95.1758 169.289C94.2969 168.41 93.4141 167.535 92.5391 166.648C92.2227 166.328 91.7422 166.031 91.6602 165.648C91.543 165.117 90.9492 164.965 90.9141 164.59C90.8711 164.105 90.3398 163.898 90.4141 163.395C90.4297 163.273 90.1758 163.109 90.043 162.961C90.043 162.055 90.043 161.137 90.043 160.223Z" fill="#F04B23"/>
<path d="M70.6484 59.4141C70.9766 59.0859 71.2734 58.7266 71.6328 58.4453C71.9922 58.168 72.3906 57.9063 72.8125 57.7539C73.2305 57.6016 73.7031 57.5898 74.3555 57.4805C73.2227 58.6094 71.9531 59.0117 70.6484 59.4141ZM63.6445 55.5977C64.6914 56.0664 65.1289 57.1328 65.8828 57.8867C64.6914 57.5586 64.1563 56.5898 63.6445 55.5977ZM75.2148 55.9414C74.3828 55.6523 73.5547 55.8516 72.7305 55.7734L72.5898 55.8945C71.8984 56.0273 71.3398 56.4531 70.707 56.7227L70.6562 56.5273C70.6523 54.5273 70.6523 52.5273 70.6523 50.5312C70.6523 48.8867 70.6445 47.2461 70.6562 45.6055C70.0195 45.6484 69.375 45.6797 68.7188 45.6953C68.7109 46.7227 68.7188 47.75 68.8633 48.7734C68.9922 49.707 68.8984 50.6719 68.8789 51.6211C68.8594 52.5469 68.8594 53.4648 68.7266 54.3984C68.5586 55.543 68.6875 56.7344 68.6875 58.0391C67.7812 57.0898 67 56.2461 66.2891 55.3047C65.4297 54.168 64.3164 53.2109 62.8281 53.3984C61.8711 53.7461 61.8711 54.5625 61.6094 55.2031C61.6758 55.3477 61.793 55.4883 61.7891 55.625C61.7852 56.082 61.8945 56.4609 62.1641 56.8555C62.4648 57.2891 62.7227 57.7461 63.0859 58.1445C64.1992 59.3672 65.6016 60.1719 67.0469 60.9258C67.6172 61.2227 68.1562 61.582 68.7305 61.9297C68.6484 62.7227 68.5117 63.4805 68.5 64.2344C68.4688 66.2656 68.4883 68.3008 68.4883 70.3281C68.4883 70.5586 68.5781 70.8555 68.4688 71.0039C68.2227 71.3477 68.3281 71.6094 68.4219 71.9609C68.5234 72.3594 68.6914 72.6562 68.9492 72.8438C69.293 72.8438 69.5742 72.8438 69.9141 72.8438C70.0352 72.5469 70.2227 72.2695 70.2461 71.9805C70.2969 71.3633 70.2344 70.7383 70.2695 70.1172C70.3008 69.5195 70.4375 68.9258 70.4492 68.3281C70.4727 66.7227 70.4609 65.1172 70.457 63.5117C70.457 62.8164 70.4062 62.1172 70.7344 61.5117C71.5156 61.1797 72.293 60.9297 73.0469 60.6016C73.9102 60.2227 74.6563 59.6992 75.3945 59.1641C75.8945 58.8008 76.375 58.3398 76.3906 57.6172C76.3945 57.5195 76.5273 57.4258 76.5898 57.3438C76.5234 57.2422 76.4688 57.1992 76.457 57.1406C76.3359 56.4336 75.8594 56.168 75.2148 55.9414Z" fill="white"/>
<path d="M62.5039 71.0391C62.5039 70.7969 62.5039 70.5391 62.5039 70.2812C62.3672 70.1328 62.2383 69.9922 62.0977 69.8438C62.0977 69.5938 62.0977 69.332 62.0977 69.0742C61.9648 68.9297 61.8359 68.7891 61.7109 68.6562C61.7109 68.3867 61.7109 68.1289 61.7109 67.875C61.8086 67.7734 61.9023 67.6836 62.0508 67.5312C62.0742 67.2852 62.1016 66.9766 62.1328 66.6641C62.3164 66.4805 62.5039 66.2969 62.6875 66.1133C63.2109 66.1094 63.7305 66.1094 64.2539 66.1094C64.3945 66.2422 64.5352 66.375 64.6797 66.5117C64.9414 66.5117 65.1992 66.5117 65.3359 66.5117C66.0312 67.0078 66.6367 67.4414 67.207 67.8438C67.2188 68.0469 67.2305 68.1719 67.2383 68.3008C67.7461 68.8086 68.2539 69.3164 68.7617 69.8242C68.7695 69.9531 68.7773 70.082 68.7852 70.2109C68.8789 70.2852 68.9609 70.4023 69.0664 70.4297C69.1758 70.457 69.3086 70.4023 69.4922 70.375C69.5273 70.2148 69.5625 70.0352 69.6133 69.7969C70.1875 69.5312 70.2578 68.8086 70.6836 68.3516C71.082 67.9219 71.5117 67.5156 71.9336 67.0977C72.793 66.6563 73.6562 66.2188 74.6367 65.7188C75.5391 65.7188 76.5859 65.7188 77.6328 65.7188C78.1445 66.0352 78.2852 66.6172 78.6133 67.2734C78.6133 67.4648 78.6133 67.8555 78.6133 68.2539C78.1328 68.8047 78.0273 69.5938 77.5312 70.1406C77.0078 70.7227 76.4219 71.25 75.8828 71.8203C75.8164 71.8906 75.875 72.0742 75.875 72.1992C75.3633 72.7109 74.8555 73.2227 74.3477 73.7305C73.8398 74.2383 73.1797 74.6719 72.8672 75.2812C72.5625 75.8711 72.1445 76.3047 71.7109 76.7578C71.2148 77.2773 70.6953 77.7773 70.1758 78.2969C69.668 78.2969 69.1484 78.2969 68.4844 78.2969C68.2109 77.9961 67.8672 77.6055 67.5078 77.2305C67.0977 76.8047 66.668 76.4023 66.2617 75.9766C65.9102 75.6055 65.4062 75.2617 65.2891 74.8203C65.1406 74.2617 64.5391 74.1484 64.4375 73.5898C64.3281 72.9922 63.5742 72.7734 63.3867 72.2656C63.1953 71.7461 62.8555 71.4219 62.5039 71.0391Z" fill="#F04B23"/>
<path d="M48.918 145.285C47.8555 145.816 47.2617 146.559 46.7109 147.336C46.2461 147.992 45.7695 149.383 45.8203 149.805C48.1172 148.504 47.375 149.117 49.8398 146.551C49.8398 146.223 49.8398 145.895 49.8398 145.574C49.7422 145.477 49.6523 145.387 49.5508 145.285C49.3008 145.285 49.0391 145.285 48.918 145.285ZM38.2461 145.059C38.1445 146.207 38.6992 147.039 39.1797 147.891C39.3477 148.188 39.543 148.508 39.8086 148.703C40.6602 149.328 41.543 149.914 42.6797 150.457C42.2461 149.703 41.9219 149.094 41.5547 148.512C41.0625 147.727 40.4805 146.996 40.0547 146.184C39.7852 145.668 39.5195 145.207 39.0078 144.836C38.7578 144.91 38.4961 144.984 38.2461 145.059ZM45.7109 152.047C45.7109 154.172 45.7109 156.238 45.7109 158.305C45.4766 158.789 45.2031 159.238 44.5625 159.398C44.332 159.234 44.0312 159.023 43.7227 158.809C43.7227 156.781 43.7227 154.789 43.7227 152.754C42.7695 152.852 42.0547 152.293 41.293 151.941C40.5977 151.621 40.0312 151.039 39.3594 150.656C38.5234 150.184 37.9805 149.445 37.457 148.695C37.1328 148.227 36.8398 147.695 36.6953 147.148C36.5859 146.742 36.3633 146.34 36.4453 145.863C36.5156 145.449 36.4609 145.016 36.4609 144.598L36.6523 144.371C36.8203 143.445 37.5859 143.188 38.3125 142.957C38.9766 142.746 39.5781 143.129 40.168 143.387C40.3906 143.484 40.7109 143.625 40.7578 143.805C40.8828 144.266 41.2891 144.488 41.5039 144.875C42.1445 146.031 42.8867 147.133 43.6914 148.418C43.7852 146.969 43.7266 145.703 43.7383 144.445C43.75 143.199 43.7422 141.949 43.7422 140.625C44 140.43 44.2969 140.207 44.6133 139.969C44.918 140.176 45.2187 140.387 45.5234 140.598C45.5234 142.297 45.5234 143.961 45.5234 145.758C45.9844 145.297 46.3516 144.906 46.7461 144.543C47.2734 144.059 47.8086 143.578 48.5703 143.492C48.6836 143.477 48.7812 143.328 48.8906 143.32C49.2148 143.297 49.5469 143.312 49.8789 143.312C51.2266 144.027 51.9492 145.109 51.8047 146.613C51.2734 148.074 50.1836 149.031 49.1289 149.992C48.5937 150.48 47.9023 150.801 47.2695 151.18C46.7695 151.477 46.2578 151.742 45.7109 152.047Z" fill="white"/>
<path d="M39.7109 158.383C39.5742 158.238 39.4414 158.098 39.3203 157.965C39.207 157.414 40.0313 157.141 39.6563 156.449C40.0234 156.145 40.4102 155.816 40.8633 155.438C41.2539 155.438 41.7734 155.438 42.1094 155.438C42.5391 155.641 42.8125 155.77 43.1719 155.938C43.5156 156.281 43.9336 156.695 44.2422 157.008C44.6758 157.867 45.043 158.605 45.4531 159.422C45.5703 159.105 45.5977 158.832 45.7461 158.66C45.9258 158.449 46.0664 158.266 46.0039 157.984C46.6992 157.285 47.3945 156.594 48.0703 155.914C48.3672 155.789 48.6445 155.672 49.1523 155.453C49.4102 155.453 49.9258 155.453 50.6133 155.453C50.8008 155.699 51.0742 156.062 51.5 156.625C51.4648 156.449 51.543 156.59 51.5078 156.688C51.2969 157.266 52.0977 157.516 51.9219 158.102C51.7813 158.566 51.2578 158.926 51.5742 159.637C51.3633 159.809 51.0781 159.98 50.8711 160.223C50.7188 160.395 50.7109 160.684 50.5742 160.879C50.1875 161.43 50.1211 162.16 49.6094 162.633C49.0938 163.109 49.0039 163.898 48.375 164.289C48.3164 164.328 48.3672 164.539 48.3672 164.672C47.6719 165.363 46.9805 166.059 46.2773 166.758C45.5859 167.191 45.0898 166.551 44.5742 166.324C44.0703 166.109 43.5508 165.605 43.3516 165.105C43.1211 164.523 42.6719 164.203 42.3438 163.754C42.0156 163.301 41.8281 162.766 41.375 162.387C40.6836 161.816 40.6094 160.867 40.1055 160.172C39.9648 159.977 39.8711 159.742 39.7109 159.438C39.7109 159.16 39.7109 158.77 39.7109 158.383Z" fill="#F04B23"/>
<path d="M32.9492 171.695C32.6289 171.375 32.3047 171.055 31.9844 170.73C31.6758 170.754 31.3516 170.609 31.0234 170.855C31.0234 171.395 31.0234 171.961 31.0234 172.391C31.5117 173.352 31.9492 174.203 32.3945 175.082C32.5938 175.02 32.7656 174.965 32.9375 174.91C32.9375 174.613 32.9375 174.355 32.9375 174.098C33.0703 173.949 33.1992 173.813 33.3398 173.66C33.3398 173.414 33.3398 173.156 33.3398 172.891C33.2148 172.758 33.082 172.617 32.9492 172.477C32.9492 172.219 32.9492 171.957 32.9492 171.695ZM38.6797 179.371C38.2773 179.371 37.9492 179.371 37.5508 179.371C37.4453 179.445 37.2969 179.559 37.0742 179.723C36.5195 179.723 35.875 179.723 35.0117 179.723C34.9219 179.703 34.7969 179.277 34.4062 179.367C34.0547 179.449 33.8398 179.18 33.5586 179.043C33.2852 178.906 32.9609 178.875 32.7695 178.59C32.4805 178.855 32.2305 179.254 31.9062 179.332C31.5469 179.418 31.3008 179.578 31.1328 179.832C30.8906 180.195 30.4141 180.063 30.168 180.379C29.9219 180.695 29.5625 180.488 29.2227 180.566C29.1055 180.668 28.9648 180.801 28.8125 180.938C27.7812 180.938 26.7344 180.938 25.6797 180.938C25.543 180.812 25.4023 180.684 25.2539 180.543C25.1289 180.543 25 180.543 24.8789 180.543C24.4531 180.121 24.0352 179.707 23.6211 179.289C23.5039 179.008 23.3867 178.73 23.1562 178.176C23.1562 178.039 23.1562 177.602 23.1562 177.062C23.7148 176.957 24.293 177.035 24.9258 177.004C24.9961 177.219 25.0703 177.441 25.1484 177.668C25.5664 178.086 25.9805 178.504 26.4258 178.949C26.9141 178.949 27.4297 178.949 28.0156 178.949C28.1055 178.871 28.2539 178.75 28.4219 178.605C29.0117 178.812 29.4141 178.203 30.043 178.152C30.3086 177.871 30.625 177.539 30.9688 177.18C30.9688 176.969 30.9688 176.711 30.9688 176.402C30.3984 176.105 30.25 175.445 29.9023 174.93C29.5625 174.43 29.5547 173.742 29.0352 173.297C29.0352 172.273 29.0352 171.23 29.0352 170.117C29.4688 169.727 29.9492 169.289 30.5273 168.762C31.1406 168.762 31.9219 168.762 32.7461 168.762C32.9961 169 33.2773 169.266 33.5625 169.539C33.6836 169.539 33.8164 169.539 33.9414 169.539C34.3828 170.414 34.8164 171.285 35.2969 172.242C35.2969 172.906 35.2969 173.691 35.2969 174.387C34.7461 175.156 34.8633 176.156 34.1758 176.766L34.2227 176.902C34.3594 177.047 34.5 177.184 34.6797 177.363C35.6758 177.363 36.7148 177.363 37.832 177.363C39.1445 176.715 40.2227 175.719 40.8555 174.191C40.7305 174.023 40.5898 173.832 40.4492 173.641L40.5898 173.508C41.293 173.426 41.9922 173.496 42.7383 173.453C42.7383 174.082 42.7383 174.594 42.7383 175.184C42.1172 176.211 41.7773 177.59 40.4648 178.164C40.0742 178.332 39.8711 178.633 39.5703 178.852C39.2695 179.07 38.7812 178.926 38.6797 179.371Z" fill="#AA8756"/>
<path d="M86.5039 73.5391C86.6719 73.3164 86.8203 73.1211 86.9844 72.9062C86.793 72.6484 86.6484 72.4492 86.5039 72.2539C86.3281 71.8359 86.7305 71.3398 86.293 70.9258C86.0195 71.0273 85.6836 70.8008 85.4844 70.9766C85.2695 71.3984 85.1094 71.7227 84.9687 72C84.9687 72.8125 84.9687 73.5859 84.9687 74.1719C85.2187 74.6484 85.3828 74.9648 85.5391 75.2617C86.0586 75.3398 86.207 74.8906 86.5039 74.6719C86.5039 74.2812 86.5039 73.8867 86.5039 73.5391ZM91.0234 78.4141C89.3281 78.4141 87.6289 78.4141 85.9258 78.4141C85.7852 78.5469 85.6445 78.6758 85.4961 78.8125C85.2422 78.8125 84.9805 78.8125 84.7383 78.8125C84.5859 78.9531 84.4414 79.082 84.3242 79.1875C83.3789 79.1875 82.4648 79.1875 81.6016 79.1875C81.418 79.0391 81.2539 78.8125 81.1172 78.8281C80.4297 78.9062 79.9102 78.4922 79.4258 78.168C79.0586 77.9219 78.8789 77.375 78.6367 76.9492C78.5195 76.7422 78.457 76.5039 78.2695 76.0234C78.2695 75.9219 78.2695 75.5391 78.2695 75.1523C78.1367 74.9922 78.0117 74.8477 77.8789 74.6875L77.8477 74.5312C77.8437 74.0742 77.8477 73.6172 77.8477 73.1367C77.9648 73.0039 78.0898 72.8633 78.2305 72.707C78.3164 72.4258 78.1094 72.0781 78.3945 71.7617C78.9297 71.7617 79.5 71.7617 80.0312 71.7617L80.1992 71.9258C80.2187 72.0547 80.207 72.1875 80.207 72.3164C80.207 73.4922 80.207 74.6719 80.207 75.8633C80.5273 76.1758 80.8555 76.4961 81.1992 76.832C81.4336 76.832 81.6914 76.832 81.9492 76.832C82.0977 76.9688 82.2383 77.1016 82.3789 77.2344C82.7695 77.2344 83.1602 77.2344 83.5547 77.2344C83.7383 77.0469 83.9258 76.8633 84.2383 76.5469C84.0312 76.4062 83.8398 76.2344 83.6172 76.1289C83.2578 75.9531 83.4766 75.5117 83.2031 75.3164C82.9609 75.1367 82.9727 74.8906 82.9492 74.6289C82.9297 74.3984 82.8125 74.1758 82.6094 73.5742C82.6094 73.4609 82.6094 72.9492 82.6094 72.3906C82.7109 72.168 82.918 71.8984 82.9414 71.6172C82.9687 71.2695 83.1328 71.0469 83.2852 70.7656C83.4297 70.5039 83.4648 70.1875 83.7266 69.9688C83.9727 69.7578 84.1914 69.5117 84.4219 69.2812C84.6523 69.0508 84.8867 68.8164 85.1211 68.582C85.6406 68.582 86.1602 68.582 86.6719 68.582C87.2773 69.1758 87.8828 69.7695 88.4687 70.3477C88.4922 70.75 88.3437 71.1719 88.8164 71.4609C88.8164 72.2617 88.8164 73.0938 88.8164 73.9375C88.7344 74.0195 88.6406 74.1133 88.5117 74.2422C88.5117 74.5859 88.5117 74.9687 88.5117 75.1953C88.3867 75.6836 87.8437 75.8711 88.1562 76.332L88.3047 76.4414C88.957 76.4492 89.6094 76.4453 90.2148 76.4453C90.3984 76.2969 90.5391 76.0781 90.6953 76.0703C92.0117 75.9687 92.8867 75.3008 93.3828 74.0977C93.4297 73.9844 93.5195 73.8906 93.5859 73.7852C93.5859 73.4609 93.5859 73.1328 93.5859 72.7422C93.7266 72.5898 93.8945 72.4023 94.0508 72.2344C94.5 71.9922 94.9531 72.2109 95.3594 72.0938C95.5547 72.4766 95.7227 72.8008 95.8984 73.1445C95.8125 73.2383 95.6797 73.3789 95.5469 73.5234C95.5469 73.9141 95.5469 74.3047 95.5469 74.5391C95.0156 75.8398 94.0117 76.5664 93.1758 77.4453C92.918 77.7148 92.4727 77.6406 92.2031 77.9805C92.1055 78.1055 91.7148 78 91.4648 78C91.3086 78.1484 91.168 78.2773 91.0234 78.4141Z" fill="#AA8756"/>
<path d="M37.7305 126.793C37.5078 126.355 37.3711 126.008 37.1602 125.711C36.9375 125.391 36.6484 125.121 36.3984 124.84C36.1406 124.91 35.9648 124.961 35.7344 125.023C35.8555 125.625 35.6602 126.207 35.8203 126.715C35.9648 126.863 36.0586 126.953 36.1562 127.051C36.1562 127.309 36.1562 127.57 36.1562 127.812C36.957 128.609 37.7422 129.398 38.4727 130.129C38.6094 131.16 39.8477 131.391 39.8359 132.367C40.043 132.367 40.1719 132.367 40.3438 132.367C40.4219 132.148 40.4531 131.883 40.5938 131.699C40.75 131.488 40.9492 131.324 40.8789 131.035C41.2773 130.602 41.6719 130.176 42.0664 129.746C41.9727 129.109 42.7031 129.004 42.8672 128.504C43.0352 127.988 43.3242 127.512 43.625 126.891C43.5078 126.621 43.8125 126.148 43.5 125.734C42.9844 126.027 42.3242 126.656 41.8477 127.266C41.6875 127.473 41.4805 127.641 41.2852 127.836C41.2852 128.086 41.2852 128.348 41.2852 128.602C40.9023 128.949 40.6328 129.41 40.2148 129.617C39.9414 129.617 39.7422 129.617 39.5898 129.617C38.6445 129.137 38.5039 128.027 37.7305 127.434C37.7305 127.176 37.7305 126.914 37.7305 126.793ZM39.3086 125.09V125.277C39.3086 125.473 39.3086 125.668 39.3086 125.91C39.4609 125.973 39.625 126.039 39.793 126.109C40.4258 125.414 41.0352 124.746 41.375 124.375C42.0508 124.09 42.332 123.973 42.8594 123.75C43.2227 123.75 43.8633 123.75 44.5859 123.75C45.1953 124.102 45.6406 124.688 46 125.41C46 125.727 45.9609 126.051 46.0117 126.359C46.0742 126.75 45.6445 126.863 45.6094 127.176C45.5703 127.484 45.6523 127.781 45.4023 128.078C45.1367 128.395 44.9375 128.805 44.8398 129.207C44.7148 129.695 44.1055 129.84 44.0625 130.25C44.0078 130.805 43.5664 130.973 43.3086 131.316C43.1914 131.473 42.9062 131.613 42.918 131.734C42.9687 132.184 42.5508 132.367 42.4453 132.727C42.3477 133.07 42.1484 133.383 41.8906 133.922C41.7422 134.066 41.418 134.387 41.0742 134.723C40.7109 134.723 40.3203 134.723 39.9766 134.723C39.6836 134.555 39.4258 134.406 38.8516 134.074C38.6953 133.922 38.2812 133.504 37.8672 133.09C37.8203 133.043 37.7773 132.992 37.9609 133.195C37.2539 131.77 36.1133 131.16 35.375 130.125C35.375 130.07 35.375 129.941 35.375 129.809C35.0039 129.441 34.6328 129.07 34.2578 128.695C34.0781 128.32 34.3945 127.762 33.8281 127.496C33.8281 126.332 33.8281 125.164 33.8281 124.008C33.9883 123.684 34.1523 123.359 34.3125 123.039C34.6289 122.883 34.9531 122.719 35.3281 122.531C35.5938 122.531 35.918 122.531 36.1758 122.531C36.5625 122.707 36.957 122.785 37.2148 123.02C37.9414 123.672 38.6094 124.391 39.3086 125.09Z" fill="white"/>
<path d="M71.2188 41.2852C71.0234 41.0664 70.7773 40.8789 70.8125 40.4883C70.8281 40.2969 70.4414 40.2344 70.1641 40.3711C70.0547 40.7266 69.9297 41.0703 69.6328 41.3555C69.6328 41.7227 69.6328 42.1094 69.6328 42.4531C69.4844 42.6328 69.3633 42.7773 69.2773 42.8789C69.1953 43.2422 69.4492 43.3789 69.5859 43.5859C69.7109 43.7773 69.7422 44.0273 69.8047 44.2148C70.1406 44.2148 70.3984 44.2148 70.6523 44.2148C70.8242 43.8789 70.9922 43.5547 71.2188 43.1133C71.2188 42.6094 71.2188 41.957 71.2188 41.2852ZM71.8477 47.0234C70.7969 47.0234 69.8867 47.0234 69.0234 47.0234C68.8906 47.1562 68.7969 47.2461 68.6875 47.3594C67.5273 47.3594 66.3516 47.3594 65.1367 47.3594C65.0234 47.2539 64.8828 47.125 64.7344 46.9922C64.0508 47.1602 63.5195 46.7344 63.0234 46.4102C62.4883 46.0547 62.0508 45.5313 61.6289 45.0352C61.3945 44.7617 61.2773 44.3945 61.0352 43.9219C61.0352 43.3906 61.0352 42.6914 61.0352 42.0195L61.2148 41.8711C61.8711 41.8633 62.5234 41.8672 63.1641 41.8672C63.5234 42.2031 63.3086 42.6172 63.3516 42.9883C63.3828 43.3125 63.3555 43.6445 63.3555 43.9688C63.668 44.5938 64.3633 44.6602 64.8633 45.0078C65.0586 45.1445 65.3008 45.2148 65.7148 45.4062C66.1445 45.4062 66.7969 45.4102 67.4492 45.4023L67.6016 45.2969C67.7227 44.8516 67.8281 44.4102 67.293 44.0508C67.293 43.707 67.2617 43.3164 67.3008 42.9375C67.3555 42.3867 67.0625 41.75 67.6484 41.3125C67.5742 40.7812 67.8242 40.3516 68.0742 39.9141C68.2266 39.6523 68.4023 39.3828 68.457 39.0938C68.5273 38.7188 68.8164 38.4648 69.0508 38.3828C69.3594 38.2734 69.6445 38.1992 69.8398 37.9297C70.2422 37.9297 70.6367 37.9297 70.9219 37.9297C71.5781 38.582 72.1797 39.1797 72.6641 39.6602C72.8437 40.0078 72.9531 40.2227 73.1562 40.6094C73.1562 41.5781 73.1562 42.7461 73.1562 44.0742C73.1094 44.2539 72.5586 44.4375 72.8867 44.9023L73.0352 45.0078C73.6875 45.0156 74.3398 45.0117 74.875 45.0117C75.3984 44.6992 75.8203 44.4492 76.3008 44.1602C76.4102 43.5938 76.293 43.0078 76.3594 42.4375C76.5469 42.2539 76.7305 42.0664 76.9258 41.875C77.3086 41.875 77.6992 41.875 78.1406 41.875C78.2812 42.0391 78.4531 42.2383 78.6797 42.5078C78.6797 42.7891 78.6797 43.1758 78.6797 43.5195C78.3906 44.0859 78.1133 44.625 77.7227 45.3828C77.4453 45.6602 76.9805 46.1172 76.5117 46.582C76.1172 46.4414 75.9766 46.8437 75.7031 46.9805C75.3789 46.9805 75.0469 46.9805 74.6484 46.9805C74.5469 47.0547 74.3984 47.1641 74.2227 47.2969C72.4375 47.3945 72.4375 47.3945 71.8477 47.0234Z" fill="#AA8756"/>
<path d="M49.2578 76.5273C49.6133 76.5234 49.5976 76.9336 49.9883 76.8633C50.2539 76.4258 50.5391 75.9492 50.7969 75.5273C50.7969 74.7031 50.7969 73.9258 50.7969 73.2891C50.5586 72.9922 50.3984 72.7891 50.2617 72.6172C50.0742 72.6289 49.9492 72.6367 49.8203 72.6445C49.6523 72.9688 49.4883 73.293 49.2578 73.7344C49.2578 74.5039 49.2578 75.4141 49.2578 76.5273ZM56.3359 73.8398C57.0469 73.8398 57.6133 73.8398 58.1523 73.8398L58.2969 74.0273C58.3047 74.9414 58.3047 75.8555 58.3047 76.7461C56.8867 78.6016 57.8164 78.1445 54.5664 80.0898C54.3242 80.0898 54.0664 80.0898 53.8047 80.0898C53.6601 80.2227 53.5195 80.3555 53.3789 80.4883C53.1172 80.4883 52.8555 80.4883 52.6055 80.4883C52.457 80.3516 52.3164 80.2227 52.168 80.0859C51.7773 80.0859 51.3867 80.0859 51.0117 80.0859C50.9062 79.9805 50.8125 79.8867 50.7226 79.7969C50.6016 79.7656 50.4844 79.7109 50.3672 79.707C49.9141 79.6992 49.4648 79.7031 49.0547 79.7031C48.918 79.8398 48.8242 79.9336 48.6953 80.0625C48.3516 80.0625 47.9687 80.0625 47.8398 80.0625C47.2695 80.1445 47.1797 80.6563 46.6055 80.3789C46.6094 80.3789 46.4648 80.2539 46.2969 80.1094C45.9375 80.1094 45.5469 80.1094 45.1875 80.1094C44.8906 79.957 44.7695 79.5078 44.3633 79.7383C43.7851 79.1484 43.2305 78.5938 42.6211 77.9727C42.4531 77.5469 42.6016 77.0234 42.5703 76.5156C42.5391 76.0625 42.5625 75.6055 42.5625 75.1758C42.9805 74.7656 43.4726 75.1445 44.1484 74.7656C44.0469 74.8633 44.1875 74.7305 44.3281 74.6016L44.457 74.7188C44.4648 75.4922 44.4648 76.2695 44.4648 76.8086C44.7148 77.6992 45.4687 77.6172 45.8711 78.0898C46.3945 78.0898 46.9648 78.0898 47.5234 78.0898C47.8008 77.8203 47.7539 77.6836 47.293 77.1289C47.293 75.8125 47.293 74.5039 47.293 73.2031C47.3906 73.1055 47.4844 73.0117 47.6445 72.8516C47.6562 72.6758 47.6758 72.4258 47.6992 72.0742L47.7187 71.9961C48.1289 71.5742 48.5469 71.1602 49.0117 70.6992C49.6641 70.6992 50.3672 70.6992 50.9414 70.6992C51.3633 70.918 51.6875 71.0859 52.0117 71.2539C52.0117 71.3867 52.0117 71.5156 52.0117 71.6406C52.25 71.8789 52.4805 72.1094 52.7109 72.3398C52.7383 72.4609 52.7851 72.5781 52.7891 72.6992C52.8008 72.9609 52.7148 73.2578 52.8125 73.4766C52.9844 73.875 53.1641 74.2305 53.2226 74.6914C53.2969 75.2344 52.6601 75.4336 52.8008 75.9062C52.9336 76.3672 52.4258 76.5469 52.4023 76.9258C52.3672 77.4336 51.8125 77.5547 51.6445 77.9648L51.7812 78.0938C52.5625 78.1016 53.3437 78.1016 54.3086 78.1016C54.375 78.0156 54.543 77.8164 54.6914 77.6055C54.9648 77.2266 55.5703 77.3867 55.7851 76.9141C55.9375 76.582 56.1094 76.2617 56.3359 75.8203C56.3359 75.3086 56.3359 74.6523 56.3359 73.8398Z" fill="#AA8756"/>
<path d="M71.1836 148.004C71.0508 148.004 70.9219 148.004 70.7852 148.004C70.6055 148.188 70.4219 148.371 70.2461 148.547C70.2461 149.52 70.2461 150.48 70.2461 151.242C70.4883 151.711 70.6406 152.008 70.8086 152.328C71.0859 152.055 70.9727 151.699 71.2344 151.441C71.4687 151.211 71.4883 150.762 71.7539 150.523C71.7539 149.984 71.7539 149.465 71.7539 149.117C71.5156 148.652 71.3477 148.324 71.1836 148.004ZM68.2305 147.93C68.4219 147.566 68.5625 147.297 68.6992 147.043C69.1367 146.57 69.582 146.098 69.9922 145.656C70.4336 145.656 70.8242 145.656 71.0156 145.656C71.457 145.859 71.7305 145.984 72.082 146.148C72.4375 146.504 72.8516 146.918 73.2461 147.312C73.3789 147.613 73.4961 147.891 73.7109 148.391C73.7109 149.18 73.7109 150.219 73.7109 151.273C73.3516 151.949 72.9805 152.645 72.6016 153.355L72.7031 153.449C72.9531 153.488 73.2109 153.504 73.5273 153.535C73.6211 153.617 73.7656 153.742 73.9414 153.887C74.2891 153.887 74.6797 153.887 75.1055 153.887C75.2187 153.785 75.3594 153.656 75.5156 153.516C75.7578 153.516 76.0156 153.516 76.2695 153.516C76.4219 153.379 76.5625 153.25 76.707 153.113C76.9648 153.113 77.2227 153.113 77.3594 153.113C77.875 152.836 78.2891 152.609 78.7148 152.379C79.0781 152.809 79.5117 153.152 80.0273 153.316C80.1094 153.852 79.7109 154.191 79.4336 154.262C78.7617 154.434 78.2461 154.879 77.6133 155.098C77.2148 155.238 76.8906 155.578 76.3984 155.496C76.2656 155.477 76.0937 155.695 75.875 155.848C74.9141 155.848 73.875 155.848 72.7969 155.848C72.3008 155.539 72.1836 155.504 71.625 155.48C71.4297 155.332 71.2344 155.184 71.0469 155.039C70.2617 155.496 69.4297 155.742 68.7461 156.266C68.2656 156.16 67.9219 156.57 67.5312 156.621C66.6953 156.742 65.8359 156.66 65.0039 156.66C64.6172 156.445 64.2305 156.258 63.8711 156.031C63.5625 155.832 63.4258 155.41 62.9219 155.449C62.75 155.461 62.4531 155.141 62.3906 154.922C62.2969 154.605 62.0742 154.367 61.9883 154.105C61.8867 153.789 61.7148 153.562 61.5625 153.293C61.4492 153.098 61.5391 152.785 61.5391 152.523C62.1055 152.293 62.5859 151.832 63.2773 151.941C63.4141 151.82 63.5547 151.691 63.6953 151.562C63.9141 152.016 63.9141 152.016 63.5547 152.48C64.3164 153.766 64.3164 153.766 65.668 154.684C66.0469 154.684 66.4336 154.684 66.8437 154.684C66.9687 154.566 67.1133 154.434 67.2578 154.297C67.5117 154.297 67.7734 154.297 68.0234 154.297C68.1719 154.16 68.3008 154 68.4648 153.914C68.6211 153.836 68.8164 153.836 68.9687 153.805C68.9922 153.684 69.0352 153.609 69.0117 153.562C68.7773 153.07 68.5352 152.582 68.2305 151.961C68.2305 150.684 68.2305 149.242 68.2305 147.93Z" fill="#AA8756"/>
<path d="M79.6641 128.383C79.1953 127.914 78.7539 127.523 78.375 127.078C78.0156 126.656 77.7734 126.129 77.3867 125.742C77.0156 125.367 77.1602 124.602 76.4336 124.527L76.3242 124.676C76.3125 125.063 76.3164 125.449 76.3164 125.812C76.4648 125.977 76.5938 126.117 76.7109 126.25C76.7109 126.465 76.6445 126.691 76.7227 126.852C77.1719 127.773 77.6367 128.687 78.1289 129.59C78.3008 129.906 78.7969 130.039 78.6797 130.535C79.0547 130.738 79.0156 131.18 79.2148 131.48C79.3438 131.496 79.4688 131.516 79.6484 131.539C80.0859 130.609 80.5547 129.672 81.4023 128.996L81.4336 128.82C81.4531 128.289 82.1563 128.16 82.1836 127.773C82.2227 127.145 82.8281 127.004 83.0078 126.539C82.9336 126.113 83.2031 125.633 82.8203 125.242C82.5664 125.242 82.3086 125.242 82.0664 125.242C81.7422 125.566 81.4219 125.887 81.0586 126.25C81.0586 126.57 81.0586 126.953 81.0586 127.289C80.8164 127.687 80.6016 128.039 80.3945 128.383C80.1719 128.383 79.9766 128.383 79.6641 128.383ZM79.4375 124.984C80.4023 124.234 80.9297 123.281 81.9492 122.91C82.4648 122.91 82.9805 122.91 83.4297 122.91C83.8984 123.379 84.3516 123.836 84.9453 124.43C84.9453 125.094 84.9453 126.004 84.9453 126.957C84.625 127.414 84.4727 128.051 84.1445 128.52C83.793 129.027 83.4766 129.566 83.1016 130.062C82.7656 130.512 82.457 130.977 82.125 131.426C81.7578 131.93 81.5508 132.527 81.0273 132.945C80.5273 133.352 80.1289 133.883 79.75 134.285C79.418 134.285 79.2188 134.285 78.9727 134.285C78.5313 134.074 78.2539 133.625 77.8906 133.27C77.9609 132.703 77.3906 132.562 77.1875 132.188C76.957 131.762 76.9063 131.203 76.5977 130.871C76.1992 130.445 75.8906 129.98 75.6719 129.477C75.4805 129.031 75.2734 128.574 75.0508 128.168C74.8516 127.809 74.7656 127.496 74.7266 127.113C74.7148 126.949 74.5313 126.805 74.3789 126.582C74.3789 126.148 74.3789 125.629 74.3789 125.191C74.2578 124.824 73.8086 124.699 73.9688 124.266C74.0781 124.145 74.207 124.004 74.3477 123.852C74.3477 123.605 74.3477 123.344 74.3477 123.066C74.6719 122.754 75 122.438 75.3516 122.098C75.9648 122.098 76.6172 122.098 77.2813 122.098C77.7305 122.512 78.2734 122.879 78.3906 123.566C78.8906 123.859 78.9922 124.473 79.4375 124.984Z" fill="white"/>
<path d="M60.1836 105.402C59.6328 104.816 59.1836 104.34 58.8672 104.004C58.3281 103.141 58.1445 102.285 57.5859 101.621C57.5078 101.531 57.4297 101.191 57.1523 101.488C57.1523 102.168 57.1523 102.871 57.1523 103.535L57.3242 103.711C57.5195 104.086 57.7148 104.465 57.9023 104.848C58.0859 105.227 58.2148 105.645 58.4492 105.992C58.6914 106.348 59.0508 106.586 59.168 107.074C59.2383 107.363 59.5898 107.742 60.0781 107.617C61.1875 106.508 62.2969 105.398 63.4102 104.285C63.4102 104.156 63.4102 104.023 63.4102 103.773C63.6484 103.582 63.9492 103.344 64.2148 103.133C64.125 102.613 64.3906 102.133 64.0156 101.734C63.7578 101.734 63.5 101.734 63.2578 101.734C62.793 102.199 62.332 102.66 61.8398 103.152C61.8398 103.355 61.8398 103.617 61.8398 103.875C61.707 104.02 61.5742 104.16 61.4844 104.258C61.4297 104.488 61.3867 104.664 61.3477 104.824C61.168 104.844 61.0234 104.824 60.9219 104.883C60.7109 105 60.5195 105.16 60.1836 105.402ZM59.8711 101.648C60.1328 101.687 60.2539 101.707 60.3477 101.723C60.8555 101.195 61.3477 100.68 61.6328 100.383C62.2109 100.141 62.4844 100.027 63.0273 99.7969C63.3828 99.7969 64.0273 99.7969 64.6016 99.7969C65.0703 100.27 65.5273 100.727 66.1328 101.332C66.1328 101.973 66.1328 102.883 66.1328 103.836C65.9531 104.16 65.7891 104.566 65.5312 104.898C65.2539 105.262 64.8945 105.555 64.5703 105.879C63.9219 106.527 63.2695 107.176 62.625 107.824C62.625 107.957 62.625 108.09 62.625 108.219C61.9297 108.914 61.2344 109.609 60.5 110.344C60.1562 110.344 59.7773 110.344 59.3281 110.344L59.0859 110.184C58.8008 109.91 58.5586 109.582 58.2383 109.363C57.8828 109.117 57.9727 108.672 57.6992 108.395C57.4844 108.172 57.1133 108.031 57.125 107.66C57.1367 107.246 56.5469 107.102 56.7188 106.645C56.2656 106.281 56.2773 105.613 55.7617 105.254C55.5 105.066 55.4102 104.625 55.1484 104.113C55.1484 103.547 55.1484 102.766 55.1484 101.988C55.1484 101.199 55.1484 100.414 55.1484 99.5195C55.4375 99.2813 55.7891 98.9922 56.2617 98.6055C56.5898 98.6055 57.1055 98.6055 57.6289 98.6055C58.0586 99.0586 58.5039 99.5273 59.0352 100.086C59.0313 100.508 59.5469 100.758 59.8711 101.137C59.8711 101.266 59.8711 101.398 59.8711 101.648Z" fill="white"/>
<path d="M76.2461 8.38672C76.2461 9.05469 76.2461 9.72656 76.2461 10.418L76.1094 10.5703C76.1094 10.75 76.1094 10.9414 76.1094 11.1328L75.9531 11.293C75.9531 11.4375 75.9531 11.5781 75.9531 11.7266L75.8477 11.8242C75.7891 12.1172 75.7148 12.4062 75.4727 12.6172C75.3086 12.7617 75.3008 12.9961 75.1016 13.125C74.9414 13.2344 74.7656 13.3672 74.6797 13.5352C74.4258 14.0156 73.9492 14.2969 73.6055 14.6992C73.4766 14.8516 73.2539 14.8359 73.125 14.9961C73.0078 15.1523 72.8477 15.2734 72.7031 15.4102H72.5508C72.1406 15.8008 71.7305 16.1914 71.3242 16.5859C71.1719 16.7383 70.9844 16.8359 70.8047 16.9492C70.6172 17.0703 70.5039 17.3047 70.3086 17.3867C70.1211 17.4687 69.9531 17.5625 69.8555 17.7148C69.7383 17.8906 69.6367 18.0703 69.4727 18.2148C69.3242 18.3437 69.1875 18.4844 69.043 18.6211C68.8828 18.7734 68.7227 18.9258 68.6133 19.0312C68.3359 19.5703 68.0859 20.0508 67.8008 20.5938C67.8008 20.6602 67.8008 20.8008 67.8008 20.9414L67.6445 21.1211C67.6445 21.2461 67.6445 21.3906 67.6445 21.5312L67.4922 21.6992C67.4922 21.7852 67.4922 21.8828 67.4922 21.9766L67.3359 22.1367C67.3359 22.2305 67.3359 22.3242 67.3359 22.4375L67.125 22.5117C67.0156 22.3086 66.9023 22.1172 66.8125 21.918C66.7188 21.7148 66.5391 21.5352 66.5781 21.2852L66.0625 20.4805C65.8281 20.3047 65.7773 19.9922 65.5273 19.8242C65.5625 19.6484 65.4141 19.5742 65.3125 19.4766C64.7812 18.9648 64.2461 18.4531 63.7109 17.9414V17.8008C63.5508 17.6875 63.4727 17.4766 63.2617 17.4375C63.0664 17.4023 62.9961 17.2344 62.8672 17.1328C62.7187 17.0156 62.6055 16.8672 62.3945 16.8164C62.2695 16.7813 62.1797 16.6211 62.0703 16.5195C61.8594 16.3164 61.6523 16.1016 61.4258 15.9102C61.2266 15.7422 61.0742 15.5312 60.8203 15.3984C60.5664 15.2656 60.3672 15.0352 60.1289 14.832H59.9961C59.7187 14.5664 59.4258 14.2969 59.1523 14.0156C59.043 13.8984 58.8828 13.8281 58.8516 13.625C58.8398 13.5117 58.668 13.4141 58.5625 13.3125C58.4414 13.1914 58.3164 13.0703 58.1875 12.9531C58.082 12.8555 58.125 12.6797 57.9766 12.6055C57.8281 12.5312 57.8516 12.3516 57.7578 12.2617C57.625 12.1367 57.6797 11.9961 57.6562 11.8672L57.5078 11.7148C57.5078 11.5859 57.5078 11.4648 57.5078 11.3203C57.4805 11.2812 57.4375 11.2266 57.3594 11.1289C57.3594 10.9648 57.3594 10.7539 57.3594 10.5703L57.2148 10.4336C57.2148 9.77344 57.2148 9.10156 57.2148 8.40625L57.3477 8.25781C57.3906 8.14062 57.3164 7.99609 57.4414 7.86719C57.5469 7.76172 57.5898 7.59375 57.6602 7.45312C57.7188 7.33594 57.7773 7.21484 57.8594 7.05078C58.0195 6.89844 58.2148 6.71094 58.4141 6.52344V6.38672C58.5195 6.16406 58.793 6.18359 58.9375 6.02344C59.0703 5.87891 59.2227 5.74609 59.3633 5.61328C59.6289 5.50781 59.875 5.39062 60.1016 5.21484C60.2773 5.08203 60.4961 4.9375 60.7617 5L60.8945 4.87109C61.0352 4.86328 61.207 4.85547 61.375 4.84766L61.5 4.73047C61.9297 4.73047 62.3789 4.73047 62.8594 4.73047C63.0156 4.80859 63.1992 4.90234 63.3828 5.00391C63.5859 5.11719 63.832 5.15625 63.9922 5.34375L64.1797 5.43359C64.3164 5.47266 64.4141 5.57031 64.5547 5.61719C64.7031 5.66797 64.8086 5.83984 64.9336 5.96094L65.1875 6.21484C65.1914 6.46875 65.4648 6.52734 65.5312 6.73438C65.5898 6.92188 65.6875 7.10937 65.8164 7.27344L65.8242 7.49609C65.9219 7.61719 66.0312 7.73828 66.125 7.87109C66.2422 8.03906 66.2617 8.25781 66.4297 8.40234C66.3555 8.60547 66.5742 8.75781 66.5625 8.91797C66.5508 9.12891 66.7187 9.24609 66.7461 9.4375C66.7852 9.67969 66.9023 9.91016 66.8906 10.1719C66.8789 10.375 67.1836 10.5039 66.9922 10.7578C67.1367 10.7695 67.207 10.7734 67.2656 10.7812C67.3906 10.6719 67.3086 10.543 67.3359 10.4297L67.4883 10.2734C67.4883 10.1328 67.4883 9.98828 67.4883 9.84766L67.6406 9.6875C67.5352 9.43359 67.8594 9.26953 67.7891 9.02344C67.9453 8.88281 67.8906 8.66406 67.9844 8.52734C68.0664 8.41016 68.0625 8.26172 68.1797 8.16016C68.2852 8.07422 68.25 7.89844 68.3945 7.81641C68.5078 7.75391 68.5117 7.61719 68.5703 7.52734C68.707 7.3125 68.9297 7.17188 69.0547 6.92578C69.1719 6.69922 69.4297 6.53906 69.6289 6.35547C69.8242 6.16406 70 5.95313 70.2227 5.80078C70.375 5.69531 70.5352 5.59766 70.6953 5.49609C70.8398 5.40234 71.0078 5.29687 71.2031 5.27734L71.3438 5.14844C71.6055 5.14844 71.9023 5.14844 72.2031 5.14844C72.5039 5.14844 72.8086 5.14844 73.0898 5.14844C73.418 5.30859 73.7266 5.45703 74.1875 5.68359C74.1914 5.6875 74.3359 5.79687 74.4258 5.93359C74.5547 6.13281 74.8398 6.10937 74.9492 6.29297C75.0586 6.47656 75.1602 6.65625 75.332 6.78906C75.7383 7.10937 75.8242 7.61328 76.0938 8.00781C76.1641 8.10937 76.0703 8.29687 76.2461 8.38672Z" fill="#9C1C20"/>
<path d="M100.598 88.7227C100.301 88.3633 99.9414 87.9922 99.8125 87.5625C99.6602 87.0586 99.4219 86.6055 99.1992 86.1445C98.625 84.9414 97.8164 83.8906 96.8047 83.0117C96.3164 82.5899 95.7773 82.5742 95.3125 83.0156C95.0547 83.2617 94.8242 83.5664 94.6562 83.8828C94.0508 85.0352 93.4766 86.2031 92.8906 87.3633C92.8398 87.4649 92.7773 87.5586 92.6953 87.6992C92.3398 87.1406 92.0469 86.6485 91.7109 86.1836C91.4297 85.793 91.1094 85.4297 90.7812 85.0742C90.4258 84.6875 90.0312 84.336 89.6719 83.9531C89.1211 83.375 88.5312 82.875 87.8281 82.7227C87.5625 82.8047 87.3828 82.8594 87.125 82.9375C86.9453 83.2266 86.6016 83.4688 86.3477 83.832C85.832 84.582 85.4727 85.4141 85.0078 86.1875C84.5508 86.9336 84.3125 87.8086 83.8945 88.582C83.6445 88.2578 83.3945 87.9375 83.1328 87.6289C82.7812 87.207 82.2148 87.0469 81.9414 86.4688C81.707 85.9727 81.1836 85.6289 80.8398 85.1563C80.3906 84.5391 79.8047 84 78.7617 84.2656C78.5352 84.4649 78.0859 84.6953 77.8945 85.0586C77.0625 86.6328 75.6406 87.707 74.6328 89.1445C74.4375 88.9531 74.2266 88.8203 74.1289 88.6289C73.5039 87.3789 72.5586 86.336 71.8477 85.1485C71.3242 84.2774 70.6758 83.8633 69.5898 84.0235C68.3203 85.5469 67.0039 87.1289 65.6484 88.7578C65.5234 88.6485 65.3398 88.5508 65.2617 88.3985C64.7656 87.4727 64.1484 86.6445 63.3633 85.9414C63.1719 85.7656 62.9922 85.5703 62.8047 85.3867C61.9531 84.5508 61.0039 83.8711 59.7344 83.582C59.3906 83.7852 58.8672 83.9297 58.6367 84.2735C58.3633 84.6836 57.9961 84.9805 57.6992 85.3516C57.2656 85.8906 56.8242 86.4258 56.4023 86.9766C56.0195 87.4766 55.6484 87.9766 55.2812 88.4805C55.0898 88.2422 54.9141 87.9922 54.832 87.7227C54.6797 87.2188 54.4375 86.7617 54.2188 86.3047C53.6406 85.1016 52.8359 84.0508 51.8203 83.1719C51.3359 82.75 50.7969 82.7344 50.332 83.1758C50.0703 83.4219 49.8398 83.7266 49.6758 84.0391C49.0664 85.1953 48.4961 86.3633 47.9102 87.5235C47.8594 87.625 47.7969 87.7188 47.7148 87.8594C47.3555 87.3008 47.0625 86.8086 46.7266 86.3438C46.4453 85.9531 46.125 85.5899 45.7969 85.2344C45.4414 84.8477 45.0469 84.4961 44.6875 84.1133C44.1406 83.5352 43.5508 83.0352 42.8477 82.8828C42.5781 82.9649 42.3984 83.0195 42.1406 83.0977C41.9648 83.3867 41.6172 83.6289 41.3672 83.9922C40.8477 84.7422 40.4922 85.5742 40.0234 86.3477C39.5625 87.1055 39.3242 87.9922 38.8984 88.7735C38.5625 89.3828 38.3672 89.9922 38.4297 90.6836C38.5703 90.8281 38.7148 90.9727 38.7695 91.0274C39.2813 91.2383 39.6367 91.0586 39.957 90.8867C40.4297 89.8828 40.8789 88.8945 41.3555 87.9258C41.832 86.957 42.2109 85.9297 42.9023 85.1445C43.0234 85.1445 43.0625 85.1328 43.0781 85.1485C43.2656 85.332 43.4453 85.5274 43.6406 85.7031C44.9258 86.8672 45.8945 88.2735 46.6602 89.8125C46.8711 90.2266 47.2422 90.4297 47.4531 90.7578C47.7266 90.7578 47.9609 90.7578 48.1836 90.7578C48.5781 90.3438 49.0273 89.9883 49.1914 89.4063C49.3086 88.9922 49.5039 88.5977 49.668 88.1992C50.0898 87.1758 50.6328 86.2227 51.2383 85.2539C51.7656 85.6563 52.0195 86.1875 52.2969 86.6953C52.707 87.4531 53.0977 88.2305 53.4492 89.0235C53.8164 89.8633 54.4414 90.4414 55.1758 90.918C55.4961 90.918 55.8125 90.918 56.1016 90.918C56.25 90.7735 56.3711 90.6485 56.5078 90.5117C56.5078 90.4063 56.5078 90.293 56.5078 90.1797C56.7031 90.0352 56.8906 89.8516 57.0586 89.5781C57.8789 88.2578 58.8828 87.0547 60.125 85.8867C60.4688 86.1524 60.8086 86.375 61.1055 86.6445C61.4922 86.9961 61.8398 87.3906 62.2227 87.7461C62.8984 88.3789 63.3672 89.1602 63.8008 89.9492C64.0781 90.4492 64.3281 90.9375 64.6562 91.1719C65.0547 91.3125 65.2812 91.3945 65.5078 91.4727C65.9883 91.1875 66.5195 90.9883 66.8906 90.5313C67.293 90.0352 67.8008 89.6094 68.1133 89.0664C68.3984 88.5703 68.8398 88.2578 69.1797 87.8399C69.5352 87.4063 69.8906 86.9727 70.2617 86.5195C71.3047 88.0586 72.3359 89.5235 73.3008 91.0352C73.5469 91.418 73.7656 91.6797 74.2305 91.7031C74.3281 91.711 74.4219 91.836 74.4453 91.8516C74.7383 91.7578 74.9414 91.6914 75.3438 91.5625C76.4844 89.9805 78.043 88.4844 79.3633 86.7813C80.0195 87.4805 80.6992 88.1992 81.3789 88.9141C82.0586 89.6328 82.7383 90.3477 83.4102 91.0586C83.7109 91.0586 83.9961 91.0586 84.3359 91.0586L84.4102 90.9414C84.6055 90.9024 84.7773 90.8125 84.9375 90.7266C85.4141 89.7227 85.8594 88.7344 86.3398 87.7656C86.8125 86.7969 87.1914 85.7695 87.8828 84.9844C88.0039 84.9844 88.0469 84.9727 88.0625 84.9883C88.25 85.1719 88.4258 85.3672 88.6211 85.543C89.9102 86.707 90.875 88.1133 91.6445 89.6524C91.8516 90.0664 92.2227 90.2695 92.4336 90.5977C92.7109 90.5977 92.9414 90.5977 93.168 90.5977C93.5625 90.1836 94.0078 89.8281 94.1758 89.2461C94.293 88.832 94.4844 88.4375 94.6484 88.0391C95.0703 87.0156 95.6133 86.0625 96.2188 85.0938C96.7461 85.4961 97.0039 86.0274 97.2773 86.5352C97.6914 87.2969 98.082 88.0703 98.4297 88.8633C98.8008 89.7031 99.4219 90.2813 100.156 90.7578C100.48 90.7578 100.797 90.7578 101.086 90.7578C101.23 90.6133 101.355 90.4883 101.488 90.3516C101.488 90.1328 101.488 89.9024 101.488 89.6289C101.172 89.3086 100.855 89.0391 100.598 88.7227Z" fill="#F04B23"/>
<path d="M95.4649 111.121C94.9961 110.656 94.5547 110.262 94.1758 109.82C93.8164 109.398 93.5742 108.871 93.1875 108.48C92.8203 108.109 92.9649 107.344 92.2383 107.266L92.1289 107.414C92.1172 107.805 92.1211 108.191 92.1211 108.551C92.2695 108.719 92.3985 108.859 92.5156 108.988C92.5156 109.203 92.4492 109.434 92.5235 109.59C92.9727 110.516 93.4375 111.43 93.9297 112.328C94.1055 112.648 94.6016 112.781 94.4805 113.273C94.8594 113.48 94.8164 113.922 95.0195 114.223C95.1485 114.238 95.2695 114.254 95.4531 114.277C95.8906 113.352 96.3594 112.41 97.2031 111.738L97.2344 111.559C97.2578 111.027 97.961 110.902 97.9844 110.516C98.0274 109.883 98.6328 109.746 98.8125 109.281C98.7344 108.852 99.0078 108.375 98.625 107.98C98.3711 107.98 98.1094 107.98 97.8711 107.98C97.5469 108.309 97.2227 108.629 96.8594 108.992C96.8594 109.309 96.8594 109.695 96.8594 110.031C96.6172 110.43 96.4063 110.781 96.1992 111.121C95.9766 111.121 95.7813 111.121 95.4649 111.121ZM95.2383 107.727C96.2031 106.973 96.7305 106.023 97.7539 105.648C98.2695 105.648 98.7813 105.648 99.2344 105.648C99.6992 106.117 100.156 106.574 100.746 107.172C100.746 107.836 100.746 108.742 100.746 109.695C100.426 110.156 100.277 110.789 99.9492 111.262C99.5938 111.766 99.2774 112.309 98.9024 112.805C98.5664 113.25 98.2578 113.719 97.9297 114.164C97.5586 114.668 97.3516 115.27 96.832 115.688C96.332 116.09 95.9297 116.621 95.5547 117.027C95.2188 117.027 95.0235 117.027 94.7774 117.027C94.336 116.816 94.0547 116.367 93.6953 116.012C93.7656 115.445 93.1953 115.301 92.9883 114.926C92.7578 114.504 92.711 113.945 92.3985 113.613C92.0039 113.188 91.6914 112.719 91.4766 112.215C91.2852 111.773 91.0781 111.313 90.8555 110.91C90.6563 110.547 90.5664 110.234 90.5313 109.852C90.5156 109.691 90.332 109.543 90.1797 109.324C90.1797 108.887 90.1797 108.371 90.1797 107.934C90.0586 107.562 89.6133 107.441 89.7695 107.004C89.8828 106.887 90.0117 106.742 90.1485 106.59C90.1485 106.344 90.1485 106.082 90.1485 105.805C90.4727 105.496 90.8008 105.18 91.1563 104.836C91.7695 104.836 92.4219 104.836 93.086 104.836C93.5352 105.254 94.0781 105.617 94.1914 106.309C94.6953 106.602 94.7969 107.211 95.2383 107.727Z" fill="white"/>
<path d="M71.9258 173.629C72.2773 173.625 72.2656 174.035 72.6562 173.961C72.9219 173.523 73.2109 173.051 73.4648 172.629C73.4648 171.805 73.4648 171.027 73.4648 170.391C73.2266 170.094 73.0664 169.891 72.9297 169.719C72.7422 169.727 72.6172 169.734 72.4883 169.742C72.3203 170.066 72.1562 170.395 71.9258 170.836C71.9258 171.602 71.9258 172.516 71.9258 173.629ZM79.0039 170.941C79.7148 170.941 80.2812 170.941 80.8203 170.941L80.9648 171.129C80.9726 172.039 80.9726 172.957 80.9726 173.848C79.5547 175.703 80.4844 175.246 77.2344 177.188C76.9922 177.188 76.7344 177.188 76.4726 177.188C76.3281 177.324 76.1875 177.457 76.0469 177.59C75.7851 177.59 75.5234 177.59 75.2734 177.59C75.125 177.453 74.9844 177.32 74.8359 177.188C74.4453 177.188 74.0547 177.188 73.6797 177.188C73.5742 177.082 73.4805 176.988 73.3906 176.895C73.2695 176.863 73.1523 176.812 73.0351 176.809C72.582 176.797 72.1328 176.805 71.7226 176.805C71.5859 176.941 71.4922 177.035 71.3633 177.16C71.0195 177.16 70.6367 177.16 70.5039 177.16C69.9375 177.242 69.8476 177.758 69.2734 177.477C69.2773 177.48 69.1328 177.355 68.9648 177.211C68.6055 177.211 68.2148 177.211 67.8555 177.211C67.5586 177.059 67.4375 176.609 67.0312 176.836C66.4531 176.25 65.8984 175.691 65.2891 175.074C65.1211 174.648 65.2695 174.125 65.2383 173.617C65.2109 173.16 65.2305 172.707 65.2305 172.277C65.6484 171.867 66.1406 172.246 66.8164 171.867C66.7109 171.961 66.8555 171.832 66.9961 171.703L67.125 171.816C67.1328 172.594 67.1328 173.371 67.1328 173.906C67.3828 174.797 68.1367 174.719 68.5391 175.188C69.0625 175.188 69.6328 175.188 70.1914 175.188C70.4687 174.918 70.4219 174.785 69.9609 174.227C69.9609 172.91 69.9609 171.605 69.9609 170.305C70.0586 170.203 70.1523 170.113 70.3125 169.949C70.3242 169.773 70.3437 169.527 70.3672 169.176L70.3867 169.098C70.7969 168.676 71.2148 168.262 71.6797 167.797C72.332 167.797 73.0351 167.797 73.6094 167.797C74.0312 168.02 74.3555 168.184 74.6797 168.352C74.6797 168.488 74.6797 168.617 74.6797 168.742C74.918 168.98 75.1484 169.211 75.3789 169.441C75.4062 169.563 75.4531 169.68 75.457 169.801C75.4687 170.063 75.3828 170.359 75.4805 170.578C75.6523 170.977 75.832 171.332 75.8906 171.793C75.9648 172.336 75.3281 172.531 75.4687 173.008C75.6016 173.469 75.0937 173.648 75.0703 174.027C75.0351 174.535 74.4805 174.656 74.3125 175.066L74.4492 175.195C75.2305 175.203 76.0117 175.199 76.9766 175.199C77.043 175.113 77.2109 174.914 77.3594 174.707C77.6328 174.324 78.2383 174.484 78.4531 174.012C78.6055 173.684 78.7773 173.363 79.0039 172.918C79.0039 172.41 79.0039 171.754 79.0039 170.941Z" fill="#AA8756"/>
<path d="M116.125 174.086C116.477 174.082 116.465 174.492 116.855 174.418C117.121 173.98 117.406 173.508 117.66 173.086C117.66 172.258 117.66 171.484 117.66 170.848C117.426 170.547 117.266 170.348 117.129 170.172C116.941 170.184 116.813 170.191 116.684 170.199C116.52 170.523 116.352 170.848 116.125 171.289C116.125 172.059 116.125 172.973 116.125 174.086ZM123.199 171.398C123.91 171.398 124.48 171.398 125.02 171.398L125.164 171.582C125.172 172.496 125.168 173.41 125.168 174.305C123.75 176.16 124.68 175.699 121.434 177.645C121.188 177.645 120.93 177.645 120.672 177.645C120.523 177.781 120.383 177.91 120.242 178.043C119.984 178.043 119.723 178.043 119.469 178.043C119.32 177.91 119.18 177.777 119.035 177.641C118.645 177.641 118.254 177.641 117.879 177.641C117.773 177.535 117.68 177.445 117.586 177.352C117.469 177.32 117.352 177.266 117.23 177.266C116.781 177.254 116.328 177.262 115.922 177.262C115.781 177.398 115.691 177.492 115.563 177.617C115.215 177.617 114.836 177.617 114.703 177.617C114.133 177.699 114.047 178.215 113.469 177.934C113.473 177.937 113.328 177.812 113.16 177.664C112.805 177.664 112.414 177.664 112.051 177.664C111.754 177.516 111.637 177.066 111.23 177.293C110.648 176.707 110.098 176.148 109.484 175.531C109.316 175.102 109.465 174.582 109.434 174.07C109.406 173.617 109.43 173.16 109.43 172.734C109.848 172.32 110.34 172.703 111.016 172.32C110.91 172.418 111.051 172.289 111.195 172.16L111.32 172.273C111.328 173.047 111.328 173.824 111.328 174.363C111.582 175.254 112.332 175.172 112.738 175.645C113.262 175.645 113.828 175.645 114.387 175.645C114.664 175.375 114.621 175.242 114.156 174.684C114.156 173.367 114.156 172.059 114.156 170.758C114.258 170.66 114.352 170.566 114.512 170.406C114.523 170.23 114.539 169.98 114.563 169.633L114.586 169.555C114.996 169.133 115.414 168.715 115.875 168.254C116.531 168.254 117.23 168.254 117.805 168.254C118.23 168.473 118.551 168.641 118.879 168.809C118.879 168.945 118.879 169.074 118.879 169.199C119.113 169.434 119.344 169.664 119.578 169.898C119.605 170.016 119.648 170.137 119.656 170.258C119.668 170.52 119.578 170.816 119.676 171.035C119.852 171.43 120.027 171.785 120.09 172.246C120.16 172.789 119.527 172.988 119.664 173.465C119.801 173.922 119.293 174.105 119.266 174.48C119.23 174.988 118.676 175.113 118.512 175.52L118.648 175.652C119.43 175.66 120.211 175.656 121.172 175.656C121.242 175.57 121.406 175.371 121.559 175.16C121.828 174.781 122.434 174.941 122.648 174.469C122.801 174.141 122.977 173.82 123.199 173.375C123.199 172.863 123.199 172.211 123.199 171.398Z" fill="#AA8756"/>
<path d="M59.1523 125.547C59.4648 125.715 59.543 126.027 59.6758 126.289C59.7969 126.535 59.9766 126.762 59.9766 127.074C60.1484 127.074 60.3203 127.074 60.4648 127.074L60.6094 127.199C60.9023 127.199 61.1758 127.199 61.4453 127.199L61.5352 127.109C61.7773 127.012 61.9727 127.16 62.1914 127.258C62.2383 127.348 62.2031 127.465 62.2109 127.578C62.2148 127.68 62.2109 127.777 62.2109 127.855C62.125 127.98 61.9766 128.023 61.9648 128.195C61.9531 128.328 61.75 128.359 61.7344 128.512C61.7188 128.664 61.5156 128.703 61.5078 128.828C61.4922 128.973 61.3359 129.035 61.3516 129.188L61.2305 129.309C61.1328 129.359 61.0117 129.371 60.9453 129.48C60.8906 129.574 60.8906 129.699 60.8047 129.754C61.0312 130.199 61.2578 130.645 61.5 131.121C61.4609 131.199 61.4102 131.316 61.3516 131.445C61.25 131.492 61.1328 131.551 61 131.613L60.8242 131.48H60.6016C60.4883 131.402 60.4414 131.258 60.2773 131.238C60.1797 131.223 60.0859 131.148 59.9727 131.117C59.7617 131.062 59.5703 130.941 59.3711 130.844L59.2266 130.773H59.0625C58.9102 130.922 58.7539 131.047 58.6367 131.203C58.5273 131.359 58.3281 131.348 58.2148 131.492C58.1016 131.645 57.9492 131.762 57.7656 131.836C57.5664 131.836 57.3711 131.836 57.1602 131.836L56.9961 131.68C56.9922 131.516 56.9219 131.336 57.0898 131.199C57.043 131.016 57.1758 130.879 57.2344 130.727C57.2695 130.621 57.3398 130.539 57.3477 130.414L57.4531 130.164C57.4492 129.969 57.6328 129.828 57.5977 129.629L57.6953 129.523L57.4648 129.293C57.3789 129.223 57.3242 129.121 57.1875 129.098C57.0898 129.078 57.0078 128.953 56.9141 128.871H56.8047C56.6094 128.676 56.418 128.48 56.2227 128.285L56.082 128.277L55.9219 128.078C55.9219 128.039 55.9219 127.965 55.9219 127.836C56 127.781 56.1055 127.695 56.2656 127.574L56.5625 127.453C56.6719 127.453 56.7852 127.453 56.9023 127.453L57.0469 127.332H57.2695L57.4023 127.207C57.5586 127.207 57.7148 127.207 57.8711 127.207L58.0039 127.086H58.2344L58.4062 126.914V126.68L58.5273 126.551C58.5273 126.434 58.5273 126.312 58.5273 126.199L58.6133 126.113C58.6406 125.906 58.7148 125.719 58.8242 125.547C58.9414 125.547 59.0625 125.547 59.1523 125.547Z" fill="white"/>
<path d="M43.2891 111.102C43.6016 111.273 43.6797 111.586 43.8125 111.848C43.9336 112.09 44.1133 112.32 44.1133 112.633C44.2852 112.633 44.4609 112.633 44.6016 112.633L44.7461 112.758C45.0391 112.758 45.3125 112.758 45.582 112.758L45.6719 112.668C45.9141 112.566 46.1094 112.715 46.3281 112.816C46.3711 112.906 46.3398 113.023 46.3438 113.137C46.3516 113.234 46.3438 113.332 46.3438 113.414C46.2617 113.539 46.1133 113.578 46.1016 113.75C46.0898 113.887 45.8867 113.914 45.8711 114.07C45.8555 114.219 45.6523 114.262 45.6445 114.387C45.6328 114.531 45.4727 114.594 45.4883 114.746L45.3672 114.867C45.2695 114.918 45.1484 114.93 45.082 115.035C45.0273 115.133 45.0273 115.258 44.9414 115.312C45.168 115.758 45.3906 116.199 45.6367 116.68C45.5977 116.758 45.5469 116.875 45.4883 117C45.3867 117.051 45.2695 117.105 45.1367 117.172L44.9609 117.035H44.7383C44.625 116.957 44.5781 116.816 44.4141 116.793C44.3164 116.781 44.2227 116.703 44.1094 116.676C43.8984 116.617 43.707 116.496 43.5078 116.402L43.3594 116.332L43.1992 116.328C43.0469 116.48 42.8867 116.605 42.7734 116.762C42.6641 116.914 42.4648 116.906 42.3516 117.051C42.2383 117.203 42.0859 117.32 41.9023 117.395C41.7031 117.395 41.5078 117.395 41.2969 117.395L41.1328 117.238C41.1289 117.074 41.0586 116.895 41.2266 116.758C41.1797 116.574 41.3125 116.434 41.3711 116.281C41.4062 116.18 41.4766 116.098 41.4844 115.973L41.5898 115.723C41.5859 115.527 41.7695 115.387 41.7344 115.184L41.832 115.082L41.5977 114.852C41.5156 114.777 41.4609 114.68 41.3203 114.656C41.2227 114.637 41.1445 114.512 41.0508 114.43H40.9414C40.7461 114.234 40.5508 114.035 40.3594 113.844L40.2188 113.832L40.0586 113.637C40.0586 113.598 40.0586 113.523 40.0586 113.395C40.1367 113.336 40.2422 113.254 40.4023 113.133L40.6992 113.012C40.8047 113.012 40.9219 113.012 41.0391 113.012L41.1797 112.887H41.4062L41.5391 112.766C41.6953 112.766 41.8516 112.766 42.0078 112.766L42.1406 112.645H42.3711L42.543 112.473V112.238L42.6641 112.105C42.6641 111.988 42.6641 111.871 42.6641 111.754L42.7539 111.668C42.7734 111.465 42.8516 111.277 42.9609 111.102C43.0781 111.102 43.1992 111.102 43.2891 111.102Z" fill="white"/>
<path d="M100.441 124.199C100.754 124.371 100.832 124.684 100.965 124.949C101.086 125.191 101.266 125.418 101.266 125.734C101.438 125.734 101.609 125.734 101.754 125.734L101.898 125.859C102.191 125.859 102.465 125.859 102.734 125.859L102.824 125.766C103.066 125.664 103.262 125.816 103.48 125.914C103.523 126.004 103.492 126.121 103.496 126.238C103.504 126.332 103.5 126.43 103.5 126.512C103.414 126.637 103.266 126.68 103.254 126.852C103.242 126.984 103.039 127.016 103.023 127.168C103.008 127.32 102.805 127.359 102.797 127.484C102.781 127.629 102.625 127.691 102.641 127.844L102.52 127.965C102.422 128.016 102.301 128.027 102.234 128.137C102.18 128.23 102.18 128.355 102.094 128.41C102.32 128.855 102.547 129.301 102.789 129.777C102.75 129.859 102.699 129.973 102.641 130.102C102.539 130.148 102.422 130.203 102.289 130.27L102.113 130.137H101.891C101.777 130.059 101.73 129.914 101.566 129.895C101.469 129.879 101.375 129.805 101.262 129.773C101.051 129.719 100.859 129.598 100.66 129.5L100.516 129.43H100.352C100.199 129.578 100.039 129.703 99.9258 129.863C99.8164 130.016 99.6172 130.004 99.5078 130.148C99.3906 130.301 99.2383 130.418 99.0547 130.492C98.8555 130.492 98.6602 130.492 98.4492 130.492L98.2852 130.336C98.2813 130.172 98.2109 129.992 98.3789 129.855C98.332 129.672 98.4648 129.535 98.5234 129.383C98.5586 129.281 98.6289 129.195 98.6367 129.07L98.7422 128.824C98.7383 128.625 98.9219 128.488 98.8867 128.285L98.9844 128.18L98.7539 127.949C98.668 127.879 98.6133 127.781 98.4766 127.754C98.3789 127.734 98.2969 127.609 98.2031 127.527H98.0938C97.8984 127.332 97.707 127.137 97.5117 126.941L97.3711 126.934L97.2148 126.738C97.2148 126.695 97.2148 126.621 97.2148 126.492C97.2891 126.437 97.3945 126.352 97.5547 126.23L97.8516 126.109C97.9609 126.109 98.0742 126.109 98.1914 126.109L98.332 125.988H98.5586L98.6914 125.863C98.8477 125.863 99.0039 125.863 99.1602 125.863L99.293 125.742H99.5234L99.6953 125.57V125.336L99.8164 125.203C99.8164 125.09 99.8164 124.969 99.8164 124.855L99.9023 124.77C99.9258 124.563 100.008 124.375 100.113 124.199C100.23 124.199 100.352 124.199 100.441 124.199Z" fill="white"/>
<path d="M78.5391 102.668C78.8516 102.836 78.9297 103.152 79.0625 103.414C79.1836 103.656 79.3633 103.887 79.3633 104.199C79.5352 104.199 79.7109 104.199 79.8516 104.199L79.9961 104.324C80.2891 104.324 80.5625 104.324 80.832 104.324L80.9219 104.234C81.1641 104.133 81.3594 104.281 81.5781 104.383C81.625 104.469 81.5898 104.59 81.5938 104.703C81.6016 104.801 81.5977 104.898 81.5977 104.98C81.5117 105.105 81.3633 105.145 81.3516 105.316C81.3437 105.449 81.1367 105.48 81.1211 105.633C81.1055 105.785 80.9023 105.824 80.8945 105.949C80.8828 106.098 80.7227 106.156 80.7383 106.309L80.6172 106.434C80.5195 106.484 80.3984 106.492 80.3359 106.602C80.2773 106.695 80.2813 106.82 80.1914 106.879C80.418 107.324 80.6445 107.766 80.8867 108.242C80.8477 108.324 80.7969 108.441 80.7383 108.566C80.6367 108.617 80.5195 108.672 80.3867 108.734L80.2109 108.602H79.9922C79.875 108.523 79.832 108.383 79.6641 108.359C79.5664 108.348 79.4727 108.27 79.3594 108.238C79.1484 108.184 78.9609 108.062 78.7617 107.969L78.6133 107.898L78.4492 107.895C78.3008 108.043 78.1406 108.168 78.0234 108.328C77.9141 108.48 77.7148 108.469 77.6016 108.617C77.4883 108.77 77.3359 108.887 77.1523 108.957C76.957 108.957 76.7578 108.957 76.5508 108.957L76.3867 108.801C76.3828 108.637 76.3086 108.461 76.4766 108.324C76.4297 108.137 76.5625 108 76.6211 107.848C76.6602 107.746 76.7266 107.66 76.7344 107.535L76.8398 107.289C76.8359 107.094 77.0195 106.953 76.9844 106.75L77.0859 106.648L76.8516 106.414C76.7656 106.344 76.7109 106.246 76.5742 106.219C76.4727 106.199 76.3945 106.074 76.3008 105.992H76.1914C76 105.797 75.8047 105.602 75.6094 105.406L75.4688 105.398L75.3086 105.203C75.3086 105.164 75.3086 105.086 75.3086 104.961C75.3867 104.902 75.4961 104.816 75.6523 104.695L75.9492 104.574C76.0586 104.574 76.1758 104.574 76.2891 104.574L76.4297 104.453H76.6562L76.7891 104.332C76.9453 104.332 77.1016 104.332 77.2578 104.332L77.3906 104.207H77.6211L77.793 104.035V103.805L77.918 103.672C77.918 103.555 77.918 103.437 77.918 103.32L78.0039 103.234C78.0273 103.027 78.1016 102.844 78.2109 102.668C78.332 102.668 78.4492 102.668 78.5391 102.668Z" fill="white"/>
<path d="M54.7227 173.141C55.0352 173.309 55.1133 173.621 55.2422 173.887C55.3672 174.129 55.5469 174.359 55.5469 174.672C55.7188 174.672 55.8906 174.672 56.0352 174.672L56.1797 174.797C56.4727 174.797 56.7461 174.797 57.0156 174.797L57.1055 174.707C57.3477 174.605 57.5391 174.754 57.7617 174.855C57.8047 174.941 57.7695 175.063 57.7773 175.176C57.7812 175.273 57.7773 175.371 57.7773 175.449C57.6953 175.574 57.5469 175.617 57.5352 175.789C57.5234 175.922 57.3203 175.953 57.3047 176.105C57.2852 176.258 57.0859 176.297 57.0742 176.422C57.0625 176.57 56.9023 176.633 56.9219 176.781L56.8008 176.906C56.7031 176.957 56.582 176.969 56.5156 177.074C56.4609 177.168 56.4648 177.293 56.375 177.352C56.6016 177.793 56.8242 178.238 57.0664 178.715C57.0313 178.797 56.9766 178.91 56.9219 179.039C56.8203 179.09 56.7031 179.145 56.5703 179.211L56.3945 179.074H56.1719C56.0586 178.996 56.0117 178.855 55.8477 178.832C55.7461 178.82 55.6523 178.742 55.5391 178.711C55.332 178.656 55.1406 178.535 54.9414 178.441L54.7969 178.367H54.6328C54.4805 178.516 54.3203 178.645 54.207 178.801C54.0977 178.953 53.8945 178.941 53.7852 179.09C53.6719 179.242 53.5195 179.359 53.3359 179.43C53.1367 179.43 52.9414 179.43 52.7305 179.43L52.5664 179.273C52.5625 179.109 52.4922 178.934 52.6602 178.793C52.6133 178.609 52.7461 178.473 52.8047 178.32C52.8398 178.219 52.9102 178.133 52.9141 178.008L53.0195 177.762C53.0195 177.566 53.2031 177.426 53.168 177.223L53.2656 177.117L53.0312 176.891C52.9492 176.816 52.8945 176.719 52.7578 176.691C52.6562 176.672 52.5781 176.551 52.4844 176.469H52.375C52.1797 176.27 51.9844 176.074 51.793 175.883L51.6523 175.871L51.4922 175.676C51.4922 175.637 51.4922 175.559 51.4922 175.434C51.5664 175.375 51.6758 175.289 51.8359 175.168L52.1328 175.047C52.2383 175.047 52.3555 175.047 52.4727 175.047L52.6133 174.926H52.8398L52.9688 174.805C53.1289 174.805 53.2852 174.805 53.4414 174.805L53.5703 174.684H53.8047L53.9766 174.508V174.277L54.0977 174.145C54.0977 174.027 54.0977 173.91 54.0977 173.793L54.1836 173.707C54.2109 173.5 54.2852 173.316 54.3945 173.141C54.5117 173.141 54.6328 173.141 54.7227 173.141Z" fill="white"/>
<path d="M94.5039 174.781C94.8125 174.949 94.8906 175.262 95.0234 175.527C95.1445 175.77 95.3242 175.996 95.3242 176.312C95.5 176.312 95.6719 176.312 95.8164 176.312L95.9609 176.438C96.2539 176.438 96.5273 176.438 96.793 176.438L96.8867 176.344C97.1289 176.242 97.3203 176.395 97.5391 176.492C97.5859 176.582 97.5508 176.699 97.5586 176.816C97.5625 176.91 97.5586 177.012 97.5586 177.09C97.4727 177.215 97.3242 177.258 97.3125 177.43C97.3047 177.562 97.1016 177.594 97.0859 177.746C97.0664 177.898 96.8672 177.938 96.8555 178.062C96.8437 178.211 96.6836 178.27 96.7031 178.422L96.582 178.543C96.4805 178.594 96.3633 178.605 96.2969 178.715C96.2383 178.809 96.2422 178.934 96.1562 178.992C96.3828 179.434 96.6055 179.879 96.8477 180.355C96.8125 180.437 96.7578 180.551 96.6992 180.68C96.5977 180.727 96.4844 180.785 96.3477 180.848L96.1719 180.715H95.9531C95.8398 180.637 95.793 180.492 95.625 180.473C95.5273 180.457 95.4336 180.383 95.3203 180.352C95.1133 180.297 94.9219 180.172 94.7227 180.078L94.5742 180.008H94.4102C94.2617 180.156 94.1016 180.281 93.9883 180.441C93.8789 180.594 93.6758 180.582 93.5664 180.727C93.4492 180.879 93.2969 180.996 93.1133 181.07C92.918 181.07 92.7227 181.07 92.5117 181.07L92.3477 180.914C92.3438 180.75 92.2734 180.57 92.4375 180.434C92.3906 180.25 92.5273 180.113 92.582 179.961C92.6211 179.859 92.6914 179.773 92.6953 179.648L92.8008 179.402C92.7969 179.203 92.9844 179.066 92.9453 178.863L93.0469 178.758L92.8125 178.527C92.7266 178.457 92.6719 178.359 92.5352 178.332C92.4375 178.313 92.3594 178.191 92.2656 178.105H92.1562C91.9609 177.91 91.7656 177.715 91.5742 177.52L91.4336 177.512L91.2734 177.316C91.2734 177.277 91.2734 177.199 91.2734 177.074C91.3477 177.016 91.457 176.93 91.6133 176.809L91.9141 176.688C92.0195 176.688 92.1367 176.688 92.2539 176.688L92.3945 176.566H92.6211L92.75 176.445C92.9062 176.445 93.0664 176.445 93.2227 176.445L93.3516 176.32H93.5859L93.7578 176.148V175.914L93.8789 175.785C93.8789 175.664 93.8789 175.547 93.8789 175.434L93.9648 175.348C93.9883 175.141 94.0664 174.953 94.1719 174.781C94.293 174.781 94.4102 174.781 94.5039 174.781Z" fill="white"/>
<path d="M53.6172 57.582C53.9297 57.75 54.0078 58.0625 54.1406 58.3281C54.2617 58.5703 54.4414 58.8008 54.4414 59.1133C54.6133 59.1133 54.7852 59.1133 54.9297 59.1133L55.0742 59.2383C55.3672 59.2383 55.6406 59.2383 55.9102 59.2383L56 59.1484C56.2422 59.0469 56.4375 59.1953 56.6562 59.2969C56.6992 59.3828 56.668 59.5039 56.6719 59.6172C56.6797 59.7148 56.6758 59.8125 56.6758 59.8945C56.5898 60.0195 56.4414 60.0586 56.4297 60.2305C56.4219 60.3633 56.2148 60.3945 56.1992 60.5469C56.1836 60.6992 55.9805 60.7383 55.9727 60.8672C55.9609 61.0117 55.8008 61.0703 55.8164 61.2227L55.6953 61.3477C55.5977 61.3984 55.4766 61.4102 55.4102 61.5156C55.3555 61.6094 55.3555 61.7344 55.2695 61.7891C55.4961 62.2383 55.7187 62.6797 55.9648 63.1562C55.9258 63.2383 55.875 63.3555 55.8164 63.4805C55.7148 63.5312 55.5977 63.5859 55.4648 63.6484L55.2891 63.5156H55.0664C54.9531 63.4375 54.9062 63.293 54.7422 63.2734C54.6445 63.2617 54.5508 63.1836 54.4375 63.1523C54.2266 63.0977 54.0352 62.9766 53.8398 62.8828L53.6875 62.8125L53.5273 62.8086C53.3789 62.957 53.2148 63.082 53.1016 63.2422C52.9922 63.3945 52.793 63.3828 52.6797 63.5312C52.5664 63.6836 52.4141 63.8008 52.2305 63.8711C52.0312 63.8711 51.8359 63.8711 51.6289 63.8711L51.4648 63.7148C51.457 63.5508 51.3867 63.3711 51.5547 63.2383C51.5078 63.0508 51.6406 62.9141 51.6992 62.7617C51.7344 62.6602 51.8047 62.5742 51.8125 62.4492L51.918 62.2031C51.9141 62.0078 52.0977 61.8672 52.0625 61.6641L52.1602 61.5625L51.9258 61.3281C51.8438 61.2578 51.7891 61.1602 51.6484 61.1328C51.5508 61.1172 51.4727 60.9922 51.3789 60.9102H51.2695C51.0742 60.7109 50.8828 60.5156 50.6875 60.3203L50.5469 60.3125L50.3867 60.1172C50.3867 60.0742 50.3867 60 50.3867 59.8711C50.4648 59.8164 50.5703 59.7305 50.7305 59.6094L51.0273 59.4883C51.1328 59.4883 51.2539 59.4883 51.3672 59.4883L51.5078 59.3672H51.7344L51.8672 59.2422C52.0234 59.2422 52.1797 59.2422 52.3359 59.2422L52.4688 59.1211H52.6992L52.8711 58.9492V58.7188L52.9922 58.5859C52.9922 58.4687 52.9922 58.3516 52.9922 58.2344L53.0781 58.1484C53.1016 57.9414 53.1797 57.7578 53.2891 57.582C53.4062 57.582 53.5273 57.582 53.6172 57.582Z" fill="white"/>
<path d="M82.9102 57.5859C83.2227 57.7539 83.3008 58.0664 83.4336 58.3281C83.5547 58.5703 83.7344 58.8008 83.7344 59.1133C83.9062 59.1133 84.082 59.1133 84.2227 59.1133L84.3672 59.2383C84.6602 59.2383 84.9336 59.2383 85.2031 59.2383L85.2969 59.1484C85.5352 59.0469 85.7305 59.1992 85.9492 59.2969C85.9961 59.3867 85.9609 59.5039 85.9648 59.6172C85.9727 59.7148 85.9688 59.8125 85.9688 59.8945C85.8828 60.0195 85.7344 60.0625 85.7227 60.2305C85.7148 60.3672 85.5078 60.3984 85.4922 60.5508C85.4766 60.6992 85.2773 60.7422 85.2656 60.8672C85.2539 61.0117 85.0938 61.0742 85.1094 61.2266L84.9922 61.3477C84.8906 61.3984 84.7695 61.4102 84.7031 61.5195C84.6484 61.6133 84.6523 61.7383 84.5625 61.793C84.7891 62.2383 85.0156 62.6797 85.2578 63.1602C85.2187 63.2383 85.168 63.3555 85.1094 63.4844C85.0078 63.5312 84.8906 63.5859 84.7578 63.6523L84.582 63.5195H84.3633C84.2461 63.4375 84.2031 63.2969 84.0352 63.2734C83.9375 63.2617 83.8437 63.1836 83.7305 63.1562C83.5195 63.1016 83.3281 62.9766 83.1328 62.8828L82.9844 62.8125L82.8203 62.8086C82.6719 62.9609 82.5117 63.0859 82.3945 63.2422C82.2852 63.3984 82.0859 63.3867 81.9766 63.5312C81.8594 63.6836 81.707 63.8008 81.5234 63.875C81.3281 63.875 81.1328 63.875 80.9219 63.875L80.7578 63.7188C80.7539 63.5547 80.6797 63.375 80.8477 63.2383C80.8008 63.0547 80.9336 62.9141 80.9922 62.7656C81.0312 62.6602 81.0977 62.5781 81.1055 62.4531L81.2109 62.2031C81.207 62.0078 81.3906 61.8672 81.3555 61.6641L81.4531 61.5625L81.2227 61.332C81.1367 61.2617 81.082 61.1602 80.9453 61.1367C80.8477 61.1172 80.7656 60.9922 80.6719 60.9102H80.5625C80.3711 60.7148 80.1758 60.5195 79.9844 60.3242L79.8398 60.3164L79.6836 60.1172C79.6836 60.0781 79.6836 60.0039 79.6836 59.875C79.7578 59.8164 79.8672 59.7344 80.0234 59.6133L80.3203 59.4922C80.4297 59.4922 80.5469 59.4922 80.6641 59.4922L80.8008 59.3672H81.0273L81.1602 59.2461C81.3164 59.2461 81.4727 59.2461 81.6328 59.2461L81.7617 59.125H81.9922L82.1641 58.9492V58.7188L82.2891 58.5859C82.2891 58.4687 82.2891 58.3516 82.2891 58.2344L82.375 58.1484C82.3984 57.9453 82.4727 57.7578 82.582 57.5859C82.7031 57.5859 82.8203 57.5859 82.9102 57.5859Z" fill="white"/>
</g>
<defs>
<clipPath id="clip0">
<rect width="500" height="500" fill="white" transform="translate(-340 -261)"/>
</clipPath>
</defs>
</svg>
